<svg version="1" xmlns="http://www.w3.org/2000/svg" width="933.333" height="933.333" viewBox="0 0 700.000000 700.000000"><path d="M99.5 112.8c-.8 2.2-.7 2.5 3 6.7 6 6.8 13.5 21.8 15.1 30.5.3 1.3 1.1 5.4 1.9 9.1 2.5 11.8 3 24.2 3 78.4 0 52.8-.1 53-2.4 60.5-4.1 13.1-10.8 24-21.1 33.9-4.7 4.6-14.8 11.6-18.2 12.6-1.5.5-1.8 1.4-1.6 4.3.2 3 .9 4 3.3 5.2 13.1 6.6 27.4 21.5 33.8 35 6 13 6.5 17.7 6.1 58-.1 19-.5 37.9-.8 42-1.3 18.3-1.7 23.2-3.1 34-2.1 15.7-2.4 17.6-4.1 24.5-3.7 14.9-8.1 25.6-12.8 31.3-3 3.5-3.4 7.2-.8 7.3 2.2.1 136 .1 139 0 3.3-.1 2.8-3.9-.9-7.6-8.7-8.4-17.3-36.4-20.3-65.5-.4-3-.8-7.5-1.1-10-.3-2.5-.8-9.9-1.2-16.5-1-15.7-.9-298.5 0-309.3 2.2-25.1 9.5-44.5 21-56.2 2.8-3 4.7-5.8 4.7-7.2v-2.3h-71c-58.2 0-71.1.2-71.5 1.3zM409 113.6c0 1.2.9 4.1 2 6.5 6.2 13.7-1.5 33.3-26.1 66.4-5.8 7.9-53.9 68.6-58.6 74.1-1 1.1-5.8 7.2-10.7 13.5-5 6.3-10.4 13-12 15-1.7 2-5.3 6.5-8.1 10-2.7 3.5-5.2 6.6-5.5 6.9-.3.3-6.4 7.9-13.5 17s-13.2 16.7-13.5 17c-.3.3-2.1 2.5-4 5s-3.7 4.7-4 5c-.3.3-1.9 2.2-3.4 4.3-3.1 4-3 4.1 1.9 9.2 1.1 1.2 5.4 5.9 9.5 10.5s8.6 9.5 10 11c3.9 4.2 18.9 20.6 21.1 23.2 1.1 1.2 5.7 6.3 10.2 11.2 10 10.9 11.1 12.1 19.9 21.9 3.9 4.3 8.7 9.5 10.7 11.6 2 2.1 6.8 7.4 10.6 11.6 9 10 7.4 8.2 19.5 21.5 5.8 6.3 12.5 13.7 15 16.4 26.9 29.6 43.2 44.4 63.9 58 26.3 17.4 55.4 28 86.1 31.4 12.8 1.4 45.1.6 55.5-1.4 1-.2 3.7-.6 6-.9 2.2-.4 5.6-1 7.5-1.5 1.9-.4 4.7-1.1 6.3-1.4 4.6-1.1 3.4-4-4.5-10.3-4-3.2-7.8-6.3-8.4-6.8-.6-.6-4.4-3.9-8.3-7.5-41.2-37.1-112.2-108-157-156.9-2.9-3.2-24.1-25.8-29.6-31.6-2.2-2.3-8.3-8.8-13.5-14.5-5.2-5.6-11-11.7-12.8-13.6-2.3-2.4-3.1-3.9-2.4-4.7.5-.7 8.7-11.3 18.3-23.6 9.6-12.3 19.2-24.7 21.3-27.5 12.2-15.9 66.1-85.2 66.7-85.6.4-.3 2.3-2.5 4.4-5 2-2.5 5.6-6.8 8-9.5 4.7-5.5 27.4-32.2 33.9-39.9 2.3-2.6 4.6-5.3 5.1-6 5.9-6.8 8.7-10 12.5-14.5 2.5-3 6-7 7.7-9 3-3.3 4.4-7.9 2.6-8.2-.5-.1-32.2-.2-70.6-.3l-69.7-.1v2.1z"/></svg>