<?xml version="1.0" encoding="UTF-8"?>
<svg viewBox="0 0 248 248" version="1.1" xmlns="http://www.w3.org/2000/svg" xmlns:xlink="http://www.w3.org/1999/xlink">
    <!-- Generator: Sketch 46.2 (44496) - http://www.bohemiancoding.com/sketch -->
    <title>coaster01-canvas</title>
    <desc>Created with Sketch.</desc>
    <defs></defs>
    <g id="coster" stroke="none" stroke-width="1" fill="none" fill-rule="evenodd">
        <g id="coaster01-canvas" fill="#FEFEFE">
            <g id="canvas">
                <path d="M123.7734,4.6491 C107.6984,4.6491 92.1054,7.7971 77.4264,14.0051 C63.2484,20.0021 50.5144,28.5881 39.5794,39.5241 C28.6434,50.4601 20.0574,63.1931 14.0604,77.3721 C7.8524,92.0501 4.7044,107.6431 4.7044,123.7181 C4.7044,139.7931 7.8524,155.3881 14.0604,170.0651 C20.0574,184.2431 28.6434,196.9781 39.5794,207.9121 C50.5144,218.8501 63.2484,227.4361 77.4264,233.4321 C92.1054,239.6411 107.6984,242.7871 123.7734,242.7871 C139.8484,242.7871 155.4414,239.6411 170.1194,233.4321 C184.2984,227.4361 197.0314,218.8501 207.9674,207.9121 C218.9034,196.9781 227.4894,184.2431 233.4854,170.0651 C239.6944,155.3881 242.8424,139.7931 242.8424,123.7181 C242.8424,107.6431 239.6944,92.0501 233.4854,77.3721 C227.4894,63.1931 218.9034,50.4601 207.9674,39.5241 C197.0314,28.5881 184.2984,20.0021 170.1194,14.0051 C155.4414,7.7971 139.8484,4.6491 123.7734,4.6491 M123.7734,247.0461 C107.1254,247.0461 90.9734,243.7851 75.7684,237.3541 C61.0824,231.1421 47.8934,222.2491 36.5684,210.9241 C25.2424,199.5991 16.3504,186.4101 10.1394,171.7241 C3.7084,156.5181 0.4464,140.3661 0.4464,123.7181 C0.4464,107.0701 3.7084,90.9191 10.1394,75.7131 C16.3504,61.0271 25.2424,47.8381 36.5684,36.5131 C47.8934,25.1871 61.0824,16.2951 75.7684,10.0831 C90.9734,3.6521 107.1254,0.3911 123.7734,0.3911 C140.4204,0.3911 156.5724,3.6521 171.7784,10.0831 C186.4644,16.2951 199.6534,25.1871 210.9784,36.5131 C222.3044,47.8381 231.1964,61.0271 237.4084,75.7131 C243.8384,90.9191 247.1004,107.0701 247.1004,123.7181 C247.1004,140.3661 243.8384,156.5181 237.4084,171.7241 C231.1964,186.4101 222.3044,199.5991 210.9784,210.9241 C199.6534,222.2491 186.4644,231.1421 171.7784,237.3541 C156.5724,243.7851 140.4204,247.0461 123.7734,247.0461" id="Fill-1"></path>
                <path d="M123.7734,34.6071 C99.9704,34.6071 77.5924,43.8761 60.7624,60.7071 C43.9314,77.5381 34.6614,99.9161 34.6614,123.7181 C34.6614,147.5211 43.9314,169.8991 60.7624,186.7311 C77.5924,203.5621 99.9704,212.8301 123.7734,212.8301 C147.5764,212.8301 169.9544,203.5621 186.7844,186.7311 C203.6154,169.8991 212.8854,147.5211 212.8854,123.7181 C212.8854,99.9161 203.6154,77.5381 186.7844,60.7071 C169.9534,43.8761 147.5764,34.6071 123.7734,34.6071 M123.7734,215.5851 C111.3724,215.5851 99.3404,213.1561 88.0144,208.3661 C77.0734,203.7371 67.2504,197.1151 58.8144,188.6791 C50.3774,180.2411 43.7534,170.4171 39.1264,159.4781 C34.3354,148.1501 31.9064,136.1201 31.9064,123.7181 C31.9064,111.3171 34.3354,99.2861 39.1264,87.9591 C43.7534,77.0201 50.3774,67.1951 58.8144,58.7591 C67.2504,50.3221 77.0734,43.6991 88.0144,39.0721 C99.3404,34.2801 111.3724,31.8521 123.7734,31.8521 C136.1744,31.8521 148.2054,34.2801 159.5324,39.0721 C170.4714,43.6991 180.2954,50.3221 188.7324,58.7591 C197.1694,67.1951 203.7934,77.0201 208.4204,87.9591 C213.2114,99.2861 215.6404,111.3171 215.6404,123.7181 C215.6404,136.1201 213.2114,148.1501 208.4204,159.4781 C203.7934,170.4171 197.1694,180.2411 188.7324,188.6791 C180.2954,197.1151 170.4714,203.7371 159.5324,208.3661 C148.2054,213.1561 136.1744,215.5851 123.7734,215.5851" id="Fill-3"></path>
                <path d="M94.1997,70.4928 C93.6977,70.4928 93.3247,71.0368 93.2917,71.1328 L93.1857,71.1328 C93.0567,70.8668 92.7367,70.4928 92.3207,70.4928 C91.4357,70.4928 90.8587,71.9118 90.8587,73.1498 C90.8587,74.3988 91.4467,75.7968 92.3207,75.7968 C92.7477,75.7968 93.0687,75.4118 93.1857,75.1668 L93.2917,75.1668 C93.3247,75.2638 93.6977,75.8078 94.1997,75.8078 C95.0647,75.8078 95.6407,74.4088 95.6407,73.1598 C95.6407,71.9228 95.0747,70.4928 94.1997,70.4928" id="Fill-5"></path>
                <path d="M94.0918,77.067 C93.6868,77.152 93.4098,77.505 93.2918,77.771 L93.1858,77.771 C93.0688,77.494 92.7908,77.142 92.3638,77.056 C90.4968,76.693 89.3438,75.146 89.3438,73.15 C89.3438,71.154 90.4968,69.618 92.3638,69.245 C92.7908,69.159 93.0688,68.807 93.1858,68.529 L93.2918,68.529 C93.4098,68.796 93.6868,69.148 94.0818,69.245 C95.9618,69.671 97.1548,71.143 97.1548,73.15 C97.1548,75.167 95.9618,76.672 94.0918,77.067 L94.0918,77.067 Z M87.4558,77.035 L85.6948,77.035 C85.1828,77.035 84.7978,77.462 84.6698,77.771 L84.5628,77.771 C84.4238,77.451 84.0298,77.035 83.4958,77.035 L81.1168,77.035 C81.1168,73.139 86.4738,73.299 86.4738,71.474 C86.4738,70.781 85.6848,70.418 84.9468,70.418 C83.9448,70.418 82.9308,71.08 82.5338,72.062 L82.4608,72.062 L81.7358,70.642 L82.0878,70.321 C82.4718,69.97 83.1228,69.478 84.0608,69.234 C84.4358,69.137 84.6698,68.785 84.7768,68.529 L84.8838,68.529 C85.0018,68.796 85.2778,69.148 85.6848,69.234 C86.8158,69.478 87.9888,70.172 87.9888,71.506 C87.9888,74.121 84.0938,73.993 83.0258,75.69 L83.0368,75.733 L84.1688,75.733 C84.5858,75.733 87.2218,75.722 88.3728,75.274 L88.4488,75.274 L87.4558,77.035 Z M88.9918,65.52 L73.3568,73.782 L88.9918,82.044 L104.6268,73.782 L88.9918,65.52 Z" id="Fill-7"></path>
                <path d="M167.2588,76.2443 C167.2588,76.5863 167.2898,77.2903 167.5258,77.5673 L167.5258,77.6743 C166.9918,77.6743 166.7028,78.0903 166.5648,78.4103 L166.4568,78.4103 C166.3188,78.1013 165.9348,77.6953 165.3908,77.6743 L165.3908,77.5673 C165.6898,77.1293 165.7098,76.7033 165.7428,76.3723 C165.9348,74.3873 166.7988,72.3383 167.8988,71.2073 L167.8988,71.1643 L166.0408,71.1643 C165.1338,71.1643 164.0558,71.3353 163.4268,71.5803 L163.3518,71.5803 L164.3008,69.7983 L164.3768,69.7983 L165.3908,69.9053 L166.0308,69.9053 C166.4888,69.9053 166.8198,69.4573 166.9488,69.1683 L167.0548,69.1683 C167.1738,69.4573 167.5138,69.9053 167.9618,69.9053 L170.4048,69.9053 L170.4048,70.2253 C168.8378,71.6773 167.2588,73.8543 167.2588,76.2443 L167.2588,76.2443 Z M161.6548,77.6743 C161.1008,77.6953 160.6408,78.1013 160.5128,78.4103 L160.4068,78.4103 C160.2678,78.0903 159.7988,77.6743 159.2648,77.6743 L159.2648,77.5673 C159.7448,77.2153 159.7558,75.7533 159.7558,75.3273 L159.7558,71.8153 C159.5098,71.8583 159.2768,71.9123 159.0298,71.9123 C158.8378,71.9123 158.6558,71.8793 158.4648,71.7943 L158.4648,71.5703 C159.2438,71.0363 159.8628,70.5893 160.1728,69.9053 L161.6338,69.9053 L161.6338,69.9803 C161.2928,70.3213 161.1658,71.0363 161.1658,71.4633 L161.1658,75.3273 C161.1658,75.7533 161.1758,77.2153 161.6548,77.5673 L161.6548,77.6743 Z M164.2428,65.5183 L148.6088,73.7813 L164.2428,82.0433 L179.8778,73.7813 L164.2428,65.5183 Z" id="Fill-9"></path>
                <path d="M36.9844,65.2531 L34.7554,56.8481 C34.1084,54.3251 33.5394,53.0261 32.5474,52.9841 L32.3834,52.8621 L36.1554,47.7791 L36.3204,47.9011 L37.5374,53.1471 L39.5924,60.5091 L45.7714,59.8031 C47.4184,59.6011 53.0994,58.7811 54.6784,58.2751 L54.8434,58.3971 C54.4674,59.2491 54.0484,59.9601 53.5774,60.5961 C51.5344,63.3491 48.7304,64.0791 46.2924,64.3141 L36.9844,65.2531 Z M44.8824,71.4781 L45.0474,71.6001 L41.2224,76.7551 L41.0584,76.6321 C40.9104,75.2091 37.6144,72.7641 36.6734,72.0651 L35.6854,71.3321 C34.5554,70.4941 33.0444,70.7601 32.2324,71.2151 L31.9964,71.0401 C32.2144,70.1071 31.9904,68.5901 30.8144,67.7171 L28.1534,65.7441 C27.2134,65.0451 25.6594,63.8931 24.2544,64.1651 L24.0884,64.0421 L27.9134,58.8881 L28.0784,59.0101 C28.1384,60.5511 29.6924,61.7041 30.6334,62.4021 L39.1524,68.7241 C40.0944,69.4221 43.3894,71.8671 44.8824,71.4781 L44.8824,71.4781 Z" id="Fill-79"></path>
                <path d="M64.0537,46.8195 C66.7437,44.7405 68.8237,41.3935 67.6777,38.7605 C67.5797,38.5395 67.4787,38.3595 67.3347,38.1735 C66.6897,37.3395 65.4937,36.8935 64.3507,37.3315 L64.1717,37.0995 C64.8657,36.0815 64.7317,34.8525 64.1047,34.0415 C63.9617,33.8555 63.7947,33.6885 63.5637,33.5335 C61.1667,31.8675 57.4957,32.9645 54.8977,34.9705 C52.2777,36.9955 50.2857,40.3125 51.2747,43.0285 C51.3657,43.2915 51.4857,43.4945 51.6297,43.6805 C52.2567,44.4925 53.4107,44.9335 54.5717,44.5175 L54.7507,44.7495 C54.0387,45.7445 54.1687,47.0145 54.8127,47.8495 C54.9567,48.0345 55.1047,48.1795 55.2947,48.3285 C57.5357,50.0785 61.3407,48.9155 64.0537,46.8195 M52.8017,32.2575 C57.8097,28.3875 62.7457,28.0175 67.4217,31.6255 C68.3527,32.3505 68.8737,32.6885 70.3397,32.3335 L70.5187,32.5655 C69.8217,33.7715 70.0537,34.4065 70.7387,36.0615 C72.8237,41.1545 70.7827,45.9895 66.1447,49.5735 C61.7847,52.9425 56.5437,54.0675 51.9107,50.6105 C50.3467,49.4495 49.9027,49.1625 48.5837,49.5155 L48.4047,49.2835 C49.1177,47.9545 48.8857,47.3195 48.4547,46.2815 C46.1037,40.5075 48.0477,35.9305 52.8017,32.2575" id="Fill-81"></path>
                <path d="M95.9404,19.1071 C96.4324,20.4251 97.8164,21.0341 98.7644,21.0561 L98.8664,21.3311 C98.1754,21.9951 97.5294,23.3621 98.0204,24.6801 L98.4524,25.8331 C98.8614,26.9311 100.2964,30.7751 101.6514,31.3011 L101.7224,31.4931 L96.0944,33.5951 L96.0234,33.4031 C95.4804,31.9481 93.9784,31.1941 92.5524,30.4761 L78.5894,23.4901 L81.7874,32.0551 C82.1974,33.1531 83.6324,36.9971 84.9874,37.5241 L85.0584,37.7161 L79.6504,39.7351 L79.5784,39.5431 C80.1734,38.2891 78.7384,34.4451 78.3284,33.3471 L77.8974,32.1941 C77.4064,30.8761 75.9934,30.2771 75.0654,30.2181 L74.9614,29.9431 C75.6524,29.2781 76.2884,27.8841 75.7764,26.5111 L74.6174,23.4091 C74.2084,22.3111 73.5314,20.4991 72.2594,19.9411 L72.1874,19.7491 L78.3104,17.4631 L78.3824,17.6551 C78.9144,19.0831 80.6044,19.9221 82.0574,20.6311 L94.9414,26.9871 L91.2824,17.1871 C90.8724,16.0881 90.1944,14.2771 88.8684,13.7391 L88.7964,13.5481 L94.2604,11.5071 L94.3314,11.7001 C93.6544,12.9851 94.3314,14.7971 94.7414,15.8951 L95.9404,19.1071 Z" id="Fill-83"></path>
                <path d="M110.9829,20.0958 L115.8389,12.8828 C117.3119,10.7348 117.9139,9.4508 117.2929,8.6778 L117.2759,8.4728 L123.5859,7.9628 L123.6019,8.1678 L120.4569,12.5378 L116.2699,18.9338 L120.8719,23.1188 C122.1079,24.2248 126.4669,27.9588 127.8879,28.8138 L127.9049,29.0188 C127.0159,29.2968 126.2049,29.4498 125.4159,29.5138 C121.9989,29.7908 119.6029,28.1608 117.8209,26.4818 L110.9829,20.0958 Z M111.5009,30.1398 L111.5179,30.3438 L105.1199,30.8608 L105.1039,30.6568 C106.0769,29.6078 105.7459,25.5178 105.6519,24.3498 L105.5519,23.1228 C105.4399,21.7208 104.2449,20.7588 103.3659,20.4478 L103.3429,20.1558 C104.1889,19.7048 105.1819,18.5358 105.0639,17.0758 L104.7969,13.7748 C104.7029,12.6068 104.5459,10.6788 103.4169,9.7998 L103.4009,9.5958 L109.7979,9.0778 L109.8149,9.2828 C108.6949,10.3438 108.8509,12.2718 108.9449,13.4398 L109.7999,24.0138 C109.8949,25.1828 110.2249,29.2718 111.5009,30.1398 L111.5009,30.1398 Z" id="Fill-85"></path>
                <path d="M141.5083,18.5328 L141.7103,18.5708 C142.1743,18.9558 142.8883,19.1208 143.5803,19.2518 L146.6323,19.8268 C148.8203,20.2398 150.5433,19.4908 150.8683,17.7628 C151.1893,16.0638 149.8643,14.7108 147.6753,14.2978 L138.8913,12.6408 L136.7733,23.8728 C136.5603,24.9958 135.7383,29.0458 136.6533,30.2018 L136.6153,30.4038 L130.3373,29.2198 L130.3753,29.0178 C131.6783,28.2798 132.4093,24.2418 132.6273,23.0908 L132.8553,21.8808 C133.1153,20.4988 132.2163,19.2558 131.4513,18.7228 L131.5063,18.4358 C132.4403,18.2238 133.7073,17.3598 133.9793,15.9198 L134.5923,12.6658 C134.8093,11.5128 135.1683,9.6128 134.2533,8.4558 L134.2913,8.2548 L148.3733,10.9098 C152.9243,11.7678 155.6963,14.6178 154.9363,18.6498 C154.3453,21.7878 151.9803,23.7278 148.3533,23.6708 L149.5593,26.2838 C150.1783,27.5938 151.9413,31.6828 153.5873,33.3958 L153.5483,33.5968 C152.5903,33.6248 151.7673,33.5588 151.0473,33.4228 C147.7633,32.8038 146.6513,30.4768 146.0403,29.1388 L143.0833,22.6768 L138.6763,21.8458 L141.5083,18.5328 Z" id="Fill-87"></path>
                <path d="M171.3311,42.1476 L155.5171,34.5306 L155.6061,34.3466 C156.9761,33.9326 158.7561,30.2366 159.2651,29.1806 L159.7991,28.0706 C160.4101,26.8046 159.8641,25.3706 159.2641,24.6576 L159.3911,24.3946 C160.3471,24.4326 161.7951,23.9256 162.4321,22.6056 L163.8681,19.6226 C164.3761,18.5666 165.2151,16.8236 164.6841,15.4946 L164.7741,15.3106 L180.5881,22.9266 L179.7441,27.8546 L179.5591,27.7656 C178.7241,26.2576 176.1311,24.6186 173.4381,23.3206 L167.9731,20.6896 L165.7091,25.3886 L176.4021,30.5386 L172.3161,33.3516 L172.1041,33.2496 C171.6581,32.3516 169.9651,31.2756 168.4861,30.5646 L164.2091,28.5036 L161.7171,33.6786 L165.7041,35.5986 C167.8941,36.6546 172.8291,38.7696 175.6491,38.9906 L175.8331,39.0796 L171.3311,42.1476 Z" id="Fill-89"></path>
                <path d="M190.7686,28.9318 L190.9276,29.0608 L192.6506,30.8428 L203.7636,39.8898 L205.7676,41.1438 L205.9256,41.2728 L200.6036,43.4018 L200.4436,43.2718 C200.6976,42.4958 200.3766,41.5918 199.2176,40.6478 L196.3536,38.3168 L193.7446,41.5208 C192.8196,42.6578 192.9766,44.1828 193.4176,45.0328 L193.2326,45.2598 C192.3106,44.9998 190.8026,45.1338 189.9146,46.2248 L189.1376,47.1798 C188.3976,48.0878 185.8086,51.2698 186.1286,52.7788 L185.9996,52.9378 L180.8866,48.7748 L181.0166,48.6158 C182.5806,48.6428 185.1706,45.4608 185.9116,44.5518 L186.6326,43.6658 C187.5586,42.5298 187.4016,41.0038 186.9596,40.1538 L187.1446,39.9268 C188.0666,40.1858 189.5936,40.0298 190.5176,38.8938 L193.1276,35.6888 L190.4676,33.5248 C189.1276,32.4328 187.5396,31.7838 186.0596,31.5598 L185.9006,31.4308 L190.7686,28.9318 Z" id="Fill-91"></path>
                <path d="M203.7373,73.1769 L193.1673,59.1609 L193.3313,59.0379 C194.7373,59.2979 198.0143,56.8279 198.9503,56.1219 L199.9333,55.3809 C201.0553,54.5339 201.2273,53.0099 201.0203,52.1019 L201.2543,51.9259 C202.0873,52.3979 203.6053,52.6109 204.7763,51.7279 L207.4213,49.7339 C208.3553,49.0279 209.9003,47.8639 210.0373,46.4389 L210.2013,46.3159 L220.7713,60.3309 L217.7633,64.3239 L217.6393,64.1609 C217.5883,62.4379 216.0333,59.7929 214.2333,57.4059 L210.5803,52.5629 L206.4153,55.7029 L213.5623,65.1799 L208.6403,65.8079 L208.4993,65.6219 C208.5143,64.6189 207.5023,62.8859 206.5133,61.5759 L203.6543,57.7859 L199.0693,61.2449 L201.7333,64.7779 C203.1973,66.7199 206.6143,70.8599 209.0213,72.3479 L209.1453,72.5119 L203.7373,73.1769 Z" id="Fill-93"></path>
                <path d="M21.6152,127.1554 C24.2482,126.9114 26.7332,128.7964 27.0492,132.2074 C27.2532,134.4014 26.6842,136.2234 25.6372,137.4014 L22.5192,135.5774 C23.1562,134.7564 23.5422,134.1544 23.4242,132.8864 C23.3252,131.8154 22.7792,131.2264 21.9992,131.2994 C19.1732,131.5604 20.5142,138.6144 14.9572,139.1304 C11.9842,139.4044 9.6992,137.0354 9.3942,133.7454 C9.1812,131.4544 9.9112,128.7064 11.6622,127.7094 L14.5242,129.6794 C13.3722,130.7694 12.9482,132.3094 13.0592,133.5044 C13.1542,134.5274 13.7202,135.0644 14.5242,134.9904 C17.0832,134.7534 16.1072,127.6654 21.6152,127.1554" id="Fill-95"></path>
                <polygon id="Fill-97" points="28.0771 142.8673 31.9501 156.5243 28.4181 157.5263 27.0151 152.5803 14.0651 156.2543 12.9961 152.4853 25.9471 148.8133 24.5461 143.8693"></polygon>
                <path d="M25.3486,174.8449 C26.8676,177.7229 29.6896,178.1449 32.2446,176.7979 C35.0166,175.3359 35.8196,172.4499 34.5286,170.0039 C33.2036,167.4919 30.4036,166.5899 27.6326,168.0509 C25.0346,169.4199 24.0706,172.4179 25.3486,174.8449 M37.7766,168.2909 C40.2076,172.9049 39.0136,177.9329 34.1846,180.4779 C29.5956,182.8989 24.5326,181.1679 22.1006,176.5569 C19.6696,171.9449 20.8636,166.9149 25.6916,164.3699 C30.0866,162.0519 35.2306,163.4639 37.7766,168.2909" id="Fill-99"></path>
                <path d="M45.5518,187.1613 L42.6698,189.6293 L43.5928,190.7073 C44.5648,191.8413 45.7368,192.3833 46.8338,191.4443 C47.5598,190.8223 47.9288,189.8623 46.7028,188.4313 C46.3218,187.9833 46.0948,187.7583 45.5518,187.1613 L45.5518,187.1613 Z M32.7788,192.9403 L45.7928,181.7983 C46.4148,182.5233 49.3018,185.8203 49.6198,186.1903 C52.6598,189.7423 51.9758,192.5193 49.5768,194.5723 C47.1598,196.6433 44.9008,195.9983 43.9428,195.5943 L42.0578,203.7813 L38.9698,200.1743 L40.8198,193.1123 L39.8808,192.0153 L35.3248,195.9163 L32.7788,192.9403 Z" id="Fill-101"></path>
                <polygon id="Fill-103" points="59.5176 196.464 67.4786 202.774 65.1976 205.65 60.3066 201.774 58.4356 204.133 62.7526 207.554 60.4716 210.431 56.1556 207.011 54.2246 209.446 59.3086 213.476 57.0276 216.353 48.8756 209.891"></polygon>
                <path d="M111.6763,223.4591 L111.3523,226.5511 L112.6423,226.6861 C113.6403,226.7911 114.4873,226.4611 114.6163,225.2191 C114.7243,224.1961 113.8523,223.5891 112.9033,223.4901 C112.4163,223.4381 112.1193,223.4571 111.6763,223.4591 L111.6763,223.4591 Z M110.9943,229.9591 L110.6613,233.1471 C110.9213,233.2481 111.2303,233.3551 111.9603,233.4321 C113.4693,233.5901 114.2933,233.0101 114.4133,231.8671 C114.5253,230.7961 113.7703,230.2501 112.5043,230.1171 L110.9943,229.9591 Z M108.1583,219.4481 C109.1123,219.5001 111.4853,219.6491 113.3343,219.8441 C117.3993,220.2691 118.8573,222.3171 118.6113,224.6781 C118.4253,226.4551 117.6183,227.5761 116.2653,228.2711 L116.2613,228.3201 C117.4543,228.9121 118.5163,230.2781 118.2873,232.4701 C117.9123,236.0481 114.9613,237.4371 111.2613,237.0491 C109.6313,236.8791 107.3713,236.5921 106.3843,236.3911 L108.1583,219.4481 Z" id="Fill-105"></path>
                <path d="M132.3716,230.0382 L136.1956,229.6622 L133.8216,225.0242 L132.3716,230.0382 Z M131.6996,220.1932 L135.1816,219.8502 L143.9456,236.2052 L139.7796,236.6132 L138.0156,233.1722 L131.2676,233.8352 L130.2076,237.5542 L126.2866,237.9382 L131.6996,220.1932 Z" id="Fill-107"></path>
                <path d="M152.6919,219.9952 L153.8509,223.6072 L155.2019,223.1732 C156.6249,222.7172 157.5779,221.8452 157.1369,220.4702 C156.8459,219.5602 156.1039,218.8492 154.3079,219.4252 C153.7489,219.6032 153.4529,219.7242 152.6919,219.9952 L152.6919,219.9952 Z M153.0759,234.0092 L147.8409,217.6942 C148.7499,217.4042 152.9069,216.0182 153.3729,215.8692 C157.8239,214.4392 160.1199,216.1442 161.0839,219.1522 C162.0559,222.1822 160.5889,224.0162 159.8449,224.7422 L166.6639,229.6492 L162.1429,231.1002 L156.3469,226.6622 L154.9729,227.1032 L156.8049,232.8132 L153.0759,234.0092 Z" id="Fill-109"></path>
                <path d="M216.272,188.2101 C216.519,189.7321 215.763,191.9861 214.299,193.7941 C210.956,197.9201 205.907,198.5551 201.761,195.1961 C197.939,192.1001 196.802,187.2421 200.516,182.6591 C201.947,180.8901 203.773,179.8811 205.2,179.7131 L206.388,182.9131 C205.366,183.2801 204.384,183.7151 203.368,184.9701 C201.704,187.0231 201.756,189.8371 204.38,191.9641 C206.738,193.8741 209.737,193.5941 211.679,191.1981 C212.449,190.2471 212.991,188.9551 213.05,187.5221 L216.272,188.2101 Z" id="Fill-111"></path>
                <path d="M218.4956,173.5597 L220.2416,170.1367 L215.0566,169.6357 L218.4956,173.5597 Z M209.8416,168.8167 L211.4326,165.6987 L229.9326,167.1377 L228.0296,170.8667 L224.1796,170.4967 L221.0986,176.5377 L223.6586,179.4357 L221.8686,182.9467 L209.8416,168.8167 Z" id="Fill-113"></path>
                <polygon id="Fill-115" points="216.3911 153.7501 219.0821 144.2101 222.6151 145.2071 220.9881 150.9791 224.4741 151.9621 225.9021 146.8971 229.4351 147.8951 228.0071 152.9581 233.9421 154.6341 232.8781 158.4021"></polygon>
                <polygon id="Fill-117" points="220.292 137.3976 221.271 127.2896 224.926 127.6426 224.324 133.8546 227.32 134.1446 227.851 128.6656 231.506 129.0186 230.975 134.5006 234.067 134.7996 234.694 128.3436 238.349 128.6986 237.343 139.0516"></polygon>
                <path d="M71.2178,62.8312 C71.9598,63.6752 71.8918,64.5402 71.0488,65.2822 C70.6238,65.6572 70.0778,65.8092 69.8068,65.7582 L69.4158,64.5692 C69.6028,64.5552 69.8148,64.4812 69.9568,64.3562 C70.1548,64.1822 70.1588,63.9142 69.9038,63.6242 L66.7848,60.0812 L67.9188,59.0832 L71.2178,62.8312 Z" id="Fill-119"></path>
                <polygon id="Fill-121" points="70.2012 57.1774 71.4002 56.2574 74.5612 60.3754 76.6952 58.7374 77.5572 59.8604 74.2252 62.4184"></polygon>
                <path d="M79.0146,56.7174 C79.4556,56.4244 80.0096,56.6104 80.2456,56.9644 C80.5226,57.3814 80.4796,57.9644 80.0396,58.2574 C79.5366,58.5924 78.9826,58.4054 78.7046,57.9884 C78.4706,57.6354 78.5126,57.0514 79.0146,56.7174" id="Fill-123"></path>
                <path d="M83.4634,50.067 L84.1764,51.399 C84.3814,51.321 84.6144,51.218 84.8064,51.115 C85.1554,50.928 85.5084,50.546 85.2054,49.981 C84.9284,49.465 84.5114,49.484 84.0364,49.739 C83.8624,49.833 83.7344,49.912 83.4634,50.067 L83.4634,50.067 Z M84.5834,55.357 L81.4634,49.532 C81.7884,49.359 82.7864,48.803 83.2354,48.562 C85.0084,47.613 86.0844,48.225 86.6244,49.232 C87.1814,50.272 86.8644,51.619 85.5164,52.341 C85.3914,52.408 85.0754,52.577 84.8544,52.663 L85.9154,54.644 L84.5834,55.357 Z" id="Fill-125"></path>
                <path d="M90.5386,49.2355 L91.8986,48.6475 L90.4816,47.2235 L90.5386,49.2355 Z M89.1336,45.6985 L90.3716,45.1625 L95.5156,50.1375 L94.0336,50.7785 L92.9806,49.7215 L90.5806,50.7595 L90.6286,52.2515 L89.2336,52.8535 L89.1336,45.6985 Z" id="Fill-127"></path>
                <polygon id="Fill-129" points="101.395 48.2135 97.209 45.3825 98.408 49.1615 97.058 49.5895 95.06 43.2915 96.211 42.9255 100.403 45.7755 99.198 41.9785 100.548 41.5505 102.546 47.8485"></polygon>
                <polygon id="Fill-131" points="102.8213 40.9528 108.1693 39.7908 108.4703 41.1748 106.5333 41.5948 107.6353 46.6668 106.1603 46.9878 105.0583 41.9148 103.1213 42.3358"></polygon>
                <path d="M112.2183,43.0255 L113.6883,42.8325 L112.7143,41.0745 L112.2183,43.0255 Z M111.8343,39.2385 L113.1723,39.0625 L116.7583,45.2565 L115.1573,45.4675 L114.4333,44.1625 L111.8413,44.5035 L111.4803,45.9505 L109.9723,46.1495 L111.8343,39.2385 Z" id="Fill-133"></path>
                <polygon id="Fill-135" points="118.1499 38.5958 119.6569 38.5118 120.0259 45.1088 118.5189 45.1938"></polygon>
                <path d="M127.1875,39.8995 L127.1315,41.0975 L127.6325,41.1205 C128.0185,41.1385 128.3375,40.9925 128.3595,40.5115 C128.3775,40.1155 128.0285,39.9005 127.6605,39.8835 C127.4725,39.8755 127.3575,39.8885 127.1875,39.8995 L127.1875,39.8995 Z M127.0705,42.4165 L127.0145,43.6515 C127.1165,43.6855 127.2375,43.7185 127.5205,43.7325 C128.1045,43.7595 128.4095,43.5185 128.4305,43.0755 C128.4495,42.6605 128.1455,42.4665 127.6555,42.4435 L127.0705,42.4165 Z M125.7435,38.4345 C126.1125,38.4325 127.0275,38.4365 127.7445,38.4705 C129.3195,38.5435 129.9275,39.2985 129.8845,40.2135 C129.8535,40.9015 129.5665,41.3505 129.0625,41.6495 L129.0615,41.6675 C129.5345,41.8695 129.9735,42.3725 129.9345,43.2205 C129.8715,44.6065 128.7655,45.2075 127.3325,45.1405 C126.7015,45.1115 125.8255,45.0525 125.4395,44.9965 L125.7435,38.4345 Z" id="Fill-137"></path>
                <polygon id="Fill-139" points="132.8999 38.8771 136.7849 39.3741 136.6069 40.7781 134.2179 40.4731 134.0709 41.6251 136.1779 41.8941 135.9989 43.2991 133.8919 43.0291 133.7399 44.2181 136.2209 44.5361 136.0419 45.9401 132.0629 45.4311"></polygon>
                <path d="M140.8076,41.5524 L140.4996,42.9824 L141.0346,43.0974 C141.5976,43.2184 142.0846,43.1114 142.2016,42.5674 C142.2796,42.2074 142.1676,41.8254 141.4566,41.6734 C141.2366,41.6254 141.1146,41.6084 140.8076,41.5524 L140.8076,41.5524 Z M138.2386,46.3084 L139.6296,39.8504 C139.9906,39.9274 141.6456,40.2644 141.8296,40.3044 C143.5916,40.6844 144.0296,41.6964 143.7736,42.8864 C143.5156,44.0864 142.6716,44.4154 142.2846,44.5154 L143.6186,47.4674 L141.8276,47.0814 L140.7456,44.4834 L140.2016,44.3654 L139.7156,46.6264 L138.2386,46.3084 Z" id="Fill-141"></path>
                <path d="M147.7437,45.7784 L149.1567,46.2254 L149.0177,44.2214 L147.7437,45.7784 Z M148.9967,42.1854 L150.2847,42.5914 L150.9127,49.7194 L149.3747,49.2344 L149.2697,47.7454 L146.7767,46.9584 L145.8367,48.1164 L144.3877,47.6584 L148.9967,42.1854 Z" id="Fill-143"></path>
                <polygon id="Fill-145" points="158.1836 52.8175 156.8616 52.2365 157.3076 47.7945 154.3556 51.1365 153.0336 50.5545 153.9006 43.7215 155.4656 44.4075 154.8066 48.6755 157.6176 45.3525 159.0076 45.9635 158.4976 50.2955 161.2116 46.9315 162.5416 47.5155"></polygon>
                <path d="M163.8286,52.6534 L165.1146,53.3904 L165.4046,51.4034 L163.8286,52.6534 Z M165.8196,49.4104 L166.9906,50.0824 L166.0846,57.1794 L164.6846,56.3764 L164.9006,54.9014 L162.6336,53.5994 L161.4676,54.5304 L160.1496,53.7744 L165.8196,49.4104 Z" id="Fill-147"></path>
                <polygon id="Fill-149" points="174.4863 55.0079 175.3073 55.6109 171.4003 60.9369 170.2583 60.0999 172.9783 56.3939 172.1713 56.3759 172.2703 54.9969"></polygon>
                <path d="M173.4629,61.254 L174.7369,60.956 C174.7479,61.458 174.8399,61.992 175.2669,62.35 C175.7079,62.721 176.0969,62.653 176.3159,62.394 C176.6369,62.01 176.4869,61.587 175.9229,61.114 L175.6049,60.847 L176.5169,59.763 L176.8049,60.005 C177.1889,60.328 177.6329,60.43 177.9239,60.083 C178.1069,59.866 178.1599,59.553 177.8199,59.268 C177.5089,59.007 177.1369,58.878 176.5639,58.988 L176.6259,57.71 C177.3569,57.472 178.1169,57.668 178.8319,58.269 C179.7209,59.016 179.9309,60.043 179.2639,60.838 C178.7589,61.438 178.2159,61.585 177.5159,61.392 L177.4969,61.413 C178.0159,62.058 177.9459,62.801 177.4369,63.408 C176.6339,64.362 175.3979,64.309 174.4279,63.495 C173.5829,62.785 173.3489,61.934 173.4629,61.254" id="Fill-151"></path>
                <polygon id="Fill-153" points="84.9961 193.1906 86.2051 193.8196 85.0051 196.1256 87.9341 194.7216 89.3871 195.4776 86.1281 196.8816 86.7891 200.8496 85.2561 200.0506 84.7601 196.5916 83.4501 199.1096 82.2411 198.4796"></polygon>
                <polygon id="Fill-155" points="92.3555 203.2306 91.1115 198.8416 89.7425 202.1486 88.5625 201.6596 90.8445 196.1506 91.8525 196.5676 93.0885 200.9716 94.4645 197.6496 95.6445 198.1386 93.3625 203.6486"></polygon>
                <polygon id="Fill-157" points="97.7046 198.8673 99.0046 199.2743 98.2246 201.7533 100.8656 199.8613 102.4256 200.3513 99.4626 202.3053 100.8066 206.0943 99.1566 205.5743 98.0666 202.2563 97.2156 204.9633 95.9146 204.5543"></polygon>
                <path d="M105.0298,202.2902 L104.7378,203.5782 L105.2198,203.6862 C105.7268,203.8022 106.1678,203.7092 106.2778,203.2192 C106.3518,202.8942 106.2558,202.5502 105.6148,202.4042 C105.4158,202.3592 105.3058,202.3442 105.0298,202.2902 L105.0298,202.2902 Z M102.6648,206.5592 L103.9838,200.7412 C104.3078,200.8142 105.7988,201.1362 105.9648,201.1732 C107.5518,201.5342 107.9368,202.4512 107.6948,203.5212 C107.4488,204.6032 106.6848,204.8932 106.3328,204.9782 L107.5088,207.6572 L105.8968,207.2902 L104.9458,204.9352 L104.4558,204.8242 L103.9938,206.8592 L102.6648,206.5592 Z" id="Fill-159"></path>
                <polygon id="Fill-161" points="109.3384 201.922 114.2234 202.658 114.0334 203.922 112.2634 203.654 111.5664 208.288 110.2174 208.084 110.9164 203.452 109.1474 203.186"></polygon>
                <polygon id="Fill-163" points="115.2305 205.1036 117.4705 205.3036 117.3645 206.4916 115.1255 206.2906"></polygon>
                <path d="M120.9175,204.4132 L120.8865,205.4952 L121.3385,205.5082 C121.6875,205.5172 121.9725,205.3812 121.9855,204.9462 C121.9955,204.5902 121.6765,204.4002 121.3445,204.3922 C121.1745,204.3872 121.0715,204.4002 120.9175,204.4132 L120.9175,204.4132 Z M120.8525,206.6862 L120.8205,207.8032 C120.9135,207.8312 121.0235,207.8592 121.2785,207.8672 C121.8065,207.8832 122.0775,207.6592 122.0885,207.2612 C122.1005,206.8852 121.8235,206.7142 121.3805,206.7032 L120.8525,206.6862 Z M119.5915,203.1132 C119.9245,203.1062 120.7505,203.0962 121.3985,203.1152 C122.8205,203.1552 123.3805,203.8282 123.3565,204.6532 C123.3385,205.2752 123.0885,205.6862 122.6365,205.9632 L122.6365,205.9792 C123.0665,206.1542 123.4715,206.6012 123.4495,207.3672 C123.4135,208.6182 122.4255,209.1792 121.1315,209.1422 C120.5615,209.1252 119.7695,209.0852 119.4215,209.0412 L119.5915,203.1132 Z" id="Fill-165"></path>
                <path d="M127.2515,206.548 L128.5885,206.482 L127.8415,204.831 L127.2515,206.548 Z M127.1845,203.113 L128.4015,203.055 L131.1715,208.888 L129.7165,208.959 L129.1615,207.733 L126.8045,207.85 L126.3735,209.125 L125.0035,209.192 L127.1845,203.113 Z" id="Fill-167"></path>
                <polygon id="Fill-169" points="132.3027 202.7472 133.6547 202.5772 134.2397 207.2262 136.6497 206.9242 136.8087 208.1932 133.0467 208.6662"></polygon>
                <polygon id="Fill-171" points="137.6963 201.9786 139.0363 201.7306 140.1173 207.5956 138.7773 207.8426"></polygon>
                <path d="M142.7651,205.3771 C143.2291,205.2711 143.6391,205.6061 143.7241,205.9791 C143.8261,206.4181 143.6051,206.8981 143.1401,207.0061 C142.6081,207.1261 142.1991,206.7921 142.0981,206.3521 C142.0121,205.9801 142.2341,205.5001 142.7651,205.3771" id="Fill-173"></path>
                <path d="M150.1646,204.4376 C149.9336,204.9236 149.2686,205.4166 148.4926,205.6436 C146.7186,206.1616 145.1486,205.3396 144.6286,203.5566 C144.1506,201.9146 144.7896,200.2966 146.7606,199.7246 C147.5216,199.5026 148.2436,199.5766 148.6856,199.8116 L148.3906,200.9616 C148.0236,200.8636 147.6576,200.7936 147.1176,200.9516 C146.2346,201.2086 145.6906,202.0236 146.0196,203.1516 C146.3146,204.1666 147.2276,204.6816 148.2576,204.3806 C148.6666,204.2626 149.0786,204.0006 149.3796,203.6016 L150.1646,204.4376 Z" id="Fill-175"></path>
                <path d="M154.2173,202.3322 C155.2733,201.9242 155.5333,200.9662 155.1733,200.0282 C154.7793,199.0102 153.8143,198.6162 152.9163,198.9612 C151.9943,199.3162 151.5683,200.2482 151.9603,201.2662 C152.3283,202.2202 153.3263,202.6752 154.2173,202.3322 M152.4573,197.7692 C154.1503,197.1152 155.8403,197.7342 156.5243,199.5062 C157.1733,201.1922 156.3693,202.8722 154.6753,203.5252 C152.9833,204.1772 151.2933,203.5602 150.6093,201.7882 C149.9863,200.1742 150.6843,198.4532 152.4573,197.7692" id="Fill-177"></path>
                <polygon id="Fill-179" points="157.0298 196.0216 158.2528 195.4026 161.0298 196.8116 161.4448 193.7876 162.5918 193.2056 165.2858 198.5226 164.0708 199.1386 162.3538 195.7506 161.9228 198.5766 161.7488 198.6656 159.2348 197.3596 160.9398 200.7256 159.7238 201.3406"></polygon>
                <path d="M27.7134,97.1212 C27.7134,100.3552 25.0914,102.9782 21.8574,102.9782 C18.6224,102.9782 16.0004,100.3552 16.0004,97.1212 C16.0004,93.8872 18.6224,91.2652 21.8574,91.2652 C25.0914,91.2652 27.7134,93.8872 27.7134,97.1212" id="Fill-181"></path>
                <path d="M231.3047,97.1212 C231.3047,100.3552 228.6817,102.9782 225.4477,102.9782 C222.2127,102.9782 219.5907,100.3552 219.5907,97.1212 C219.5907,93.8872 222.2127,91.2652 225.4477,91.2652 C228.6817,91.2652 231.3047,93.8872 231.3047,97.1212" id="Fill-183"></path>
            </g>
        </g>
    </g>
</svg>
