<svg xmlns="http://www.w3.org/2000/svg" viewBox="0 0 248 248"><style>.a{fill:#FFF;}</style><g fill="none"><path d="M123.8 4.6C107.7 4.6 92.1 7.8 77.4 14 63.2 20 50.5 28.6 39.6 39.5 28.6 50.5 20.1 63.2 14.1 77.4 7.9 92.1 4.7 107.6 4.7 123.7 4.7 139.8 7.9 155.4 14.1 170.1 20.1 184.2 28.6 197 39.6 207.9 50.5 218.9 63.2 227.4 77.4 233.4 92.1 239.6 107.7 242.8 123.8 242.8 139.8 242.8 155.4 239.6 170.1 233.4 184.3 227.4 197 218.9 208 207.9 218.9 197 227.5 184.2 233.5 170.1 239.7 155.4 242.8 139.8 242.8 123.7 242.8 107.6 239.7 92.1 233.5 77.4 227.5 63.2 218.9 50.5 208 39.5 197 28.6 184.3 20 170.1 14 155.4 7.8 139.8 4.6 123.8 4.6M123.8 247C107.1 247 91 243.8 75.8 237.4 61.1 231.1 47.9 222.2 36.6 210.9 25.2 199.6 16.4 186.4 10.1 171.7 3.7 156.5 0.4 140.4 0.4 123.7 0.4 107.1 3.7 90.9 10.1 75.7 16.4 61 25.2 47.8 36.6 36.5 47.9 25.2 61.1 16.3 75.8 10.1 91 3.7 107.1 0.4 123.8 0.4 140.4 0.4 156.6 3.7 171.8 10.1 186.5 16.3 199.7 25.2 211 36.5 222.3 47.8 231.2 61 237.4 75.7 243.8 90.9 247.1 107.1 247.1 123.7 247.1 140.4 243.8 156.5 237.4 171.7 231.2 186.4 222.3 199.6 211 210.9 199.7 222.2 186.5 231.1 171.8 237.4 156.6 243.8 140.4 247 123.8 247" class="a"/><path d="M123.8 34.6C100 34.6 77.6 43.9 60.8 60.7 43.9 77.5 34.7 99.9 34.7 123.7 34.7 147.5 43.9 169.9 60.8 186.7 77.6 203.6 100 212.8 123.8 212.8 147.6 212.8 170 203.6 186.8 186.7 203.6 169.9 212.9 147.5 212.9 123.7 212.9 99.9 203.6 77.5 186.8 60.7 170 43.9 147.6 34.6 123.8 34.6M123.8 215.6C111.4 215.6 99.3 213.2 88 208.4 77.1 203.7 67.3 197.1 58.8 188.7 50.4 180.2 43.8 170.4 39.1 159.5 34.3 148.2 31.9 136.1 31.9 123.7 31.9 111.3 34.3 99.3 39.1 88 43.8 77 50.4 67.2 58.8 58.8 67.3 50.3 77.1 43.7 88 39.1 99.3 34.3 111.4 31.9 123.8 31.9 136.2 31.9 148.2 34.3 159.5 39.1 170.5 43.7 180.3 50.3 188.7 58.8 197.2 67.2 203.8 77 208.4 88 213.2 99.3 215.6 111.3 215.6 123.7 215.6 136.1 213.2 148.2 208.4 159.5 203.8 170.4 197.2 180.2 188.7 188.7 180.3 197.1 170.5 203.7 159.5 208.4 148.2 213.2 136.2 215.6 123.8 215.6" class="a"/><path d="M94.2 70.5C93.7 70.5 93.3 71 93.3 71.1L93.2 71.1C93.1 70.9 92.7 70.5 92.3 70.5 91.4 70.5 90.9 71.9 90.9 73.1 90.9 74.4 91.4 75.8 92.3 75.8 92.7 75.8 93.1 75.4 93.2 75.2L93.3 75.2C93.3 75.3 93.7 75.8 94.2 75.8 95.1 75.8 95.6 74.4 95.6 73.2 95.6 71.9 95.1 70.5 94.2 70.5" class="a"/><path d="M94.1 77.1C93.7 77.2 93.4 77.5 93.3 77.8L93.2 77.8C93.1 77.5 92.8 77.1 92.4 77.1 90.5 76.7 89.3 75.1 89.3 73.2 89.3 71.2 90.5 69.6 92.4 69.2 92.8 69.2 93.1 68.8 93.2 68.5L93.3 68.5C93.4 68.8 93.7 69.1 94.1 69.2 96 69.7 97.2 71.1 97.2 73.2 97.2 75.2 96 76.7 94.1 77.1L94.1 77.1ZM87.5 77L85.7 77C85.2 77 84.8 77.5 84.7 77.8L84.6 77.8C84.4 77.5 84 77 83.5 77L81.1 77C81.1 73.1 86.5 73.3 86.5 71.5 86.5 70.8 85.7 70.4 84.9 70.4 83.9 70.4 82.9 71.1 82.5 72.1L82.5 72.1 81.7 70.6 82.1 70.3C82.5 70 83.1 69.5 84.1 69.2 84.4 69.1 84.7 68.8 84.8 68.5L84.9 68.5C85 68.8 85.3 69.1 85.7 69.2 86.8 69.5 88 70.2 88 71.5 88 74.1 84.1 74 83 75.7L83 75.7 84.2 75.7C84.6 75.7 87.2 75.7 88.4 75.3L88.4 75.3 87.5 77ZM89 65.5L73.4 73.8 89 82 104.6 73.8 89 65.5Z" class="a"/><path d="M167.3 76.2C167.3 76.6 167.3 77.3 167.5 77.6L167.5 77.7C167 77.7 166.7 78.1 166.6 78.4L166.5 78.4C166.3 78.1 165.9 77.7 165.4 77.7L165.4 77.6C165.7 77.1 165.7 76.7 165.7 76.4 165.9 74.4 166.8 72.3 167.9 71.2L167.9 71.2 166 71.2C165.1 71.2 164.1 71.3 163.4 71.6L163.4 71.6 164.3 69.8 164.4 69.8 165.4 69.9 166 69.9C166.5 69.9 166.8 69.5 166.9 69.2L167.1 69.2C167.2 69.5 167.5 69.9 168 69.9L170.4 69.9 170.4 70.2C168.8 71.7 167.3 73.9 167.3 76.2L167.3 76.2ZM161.7 77.7C161.1 77.7 160.6 78.1 160.5 78.4L160.4 78.4C160.3 78.1 159.8 77.7 159.3 77.7L159.3 77.6C159.7 77.2 159.8 75.8 159.8 75.3L159.8 71.8C159.5 71.9 159.3 71.9 159 71.9 158.8 71.9 158.7 71.9 158.5 71.8L158.5 71.6C159.2 71 159.9 70.6 160.2 69.9L161.6 69.9 161.6 70C161.3 70.3 161.2 71 161.2 71.5L161.2 75.3C161.2 75.8 161.2 77.2 161.7 77.6L161.7 77.7ZM164.2 65.5L148.6 73.8 164.2 82 179.9 73.8 164.2 65.5Z" class="a"/><path d="M37 65.3L34.8 56.8C34.1 54.3 33.5 53 32.5 53L32.4 52.9 36.2 47.8 36.3 47.9 37.5 53.1 39.6 60.5 45.8 59.8C47.4 59.6 53.1 58.8 54.7 58.3L54.8 58.4C54.5 59.2 54 60 53.6 60.6 51.5 63.3 48.7 64.1 46.3 64.3L37 65.3ZM44.9 71.5L45 71.6 41.2 76.8 41.1 76.6C40.9 75.2 37.6 72.8 36.7 72.1L35.7 71.3C34.6 70.5 33 70.8 32.2 71.2L32 71C32.2 70.1 32 68.6 30.8 67.7L28.2 65.7C27.2 65 25.7 63.9 24.3 64.2L24.1 64 27.9 58.9 28.1 59C28.1 60.6 29.7 61.7 30.6 62.4L39.2 68.7C40.1 69.4 43.4 71.9 44.9 71.5L44.9 71.5Z" class="a"/><path d="M64.1 46.8C66.7 44.7 68.8 41.4 67.7 38.8 67.6 38.5 67.5 38.4 67.3 38.2 66.7 37.3 65.5 36.9 64.4 37.3L64.2 37.1C64.9 36.1 64.7 34.9 64.1 34 64 33.9 63.8 33.7 63.6 33.5 61.2 31.9 57.5 33 54.9 35 52.3 37 50.3 40.3 51.3 43 51.4 43.3 51.5 43.5 51.6 43.7 52.3 44.5 53.4 44.9 54.6 44.5L54.8 44.7C54 45.7 54.2 47 54.8 47.8 55 48 55.1 48.2 55.3 48.3 57.5 50.1 61.3 48.9 64.1 46.8M52.8 32.3C57.8 28.4 62.7 28 67.4 31.6 68.4 32.4 68.9 32.7 70.3 32.3L70.5 32.6C69.8 33.8 70.1 34.4 70.7 36.1 72.8 41.2 70.8 46 66.1 49.6 61.8 52.9 56.5 54.1 51.9 50.6 50.3 49.4 49.9 49.2 48.6 49.5L48.4 49.3C49.1 48 48.9 47.3 48.5 46.3 46.1 40.5 48 35.9 52.8 32.3" class="a"/><path d="M95.9 19.1C96.4 20.4 97.8 21 98.8 21.1L98.9 21.3C98.2 22 97.5 23.4 98 24.7L98.5 25.8C98.9 26.9 100.3 30.8 101.7 31.3L101.7 31.5 96.1 33.6 96 33.4C95.5 31.9 94 31.2 92.6 30.5L78.6 23.5 81.8 32.1C82.2 33.2 83.6 37 85 37.5L85.1 37.7 79.7 39.7 79.6 39.5C80.2 38.3 78.7 34.4 78.3 33.3L77.9 32.2C77.4 30.9 76 30.3 75.1 30.2L75 29.9C75.7 29.3 76.3 27.9 75.8 26.5L74.6 23.4C74.2 22.3 73.5 20.5 72.3 19.9L72.2 19.7 78.3 17.5 78.4 17.7C78.9 19.1 80.6 19.9 82.1 20.6L94.9 27 91.3 17.2C90.9 16.1 90.2 14.3 88.9 13.7L88.8 13.5 94.3 11.5 94.3 11.7C93.7 13 94.3 14.8 94.7 15.9L95.9 19.1Z" class="a"/><path d="M111 20.1L115.8 12.9C117.3 10.7 117.9 9.5 117.3 8.7L117.3 8.5 123.6 8 123.6 8.2 120.5 12.5 116.3 18.9 120.9 23.1C122.1 24.2 126.5 28 127.9 28.8L127.9 29C127 29.3 126.2 29.4 125.4 29.5 122 29.8 119.6 28.2 117.8 26.5L111 20.1ZM111.5 30.1L111.5 30.3 105.1 30.9 105.1 30.7C106.1 29.6 105.7 25.5 105.7 24.3L105.6 23.1C105.4 21.7 104.2 20.8 103.4 20.4L103.3 20.2C104.2 19.7 105.2 18.5 105.1 17.1L104.8 13.8C104.7 12.6 104.5 10.7 103.4 9.8L103.4 9.6 109.8 9.1 109.8 9.3C108.7 10.3 108.9 12.3 108.9 13.4L109.8 24C109.9 25.2 110.2 29.3 111.5 30.1L111.5 30.1Z" class="a"/><path d="M141.5 18.5L141.7 18.6C142.2 19 142.9 19.1 143.6 19.3L146.6 19.8C148.8 20.2 150.5 19.5 150.9 17.8 151.2 16.1 149.9 14.7 147.7 14.3L138.9 12.6 136.8 23.9C136.6 25 135.7 29 136.7 30.2L136.6 30.4 130.3 29.2 130.4 29C131.7 28.3 132.4 24.2 132.6 23.1L132.9 21.9C133.1 20.5 132.2 19.3 131.5 18.7L131.5 18.4C132.4 18.2 133.7 17.4 134 15.9L134.6 12.7C134.8 11.5 135.2 9.6 134.3 8.5L134.3 8.3 148.4 10.9C152.9 11.8 155.7 14.6 154.9 18.6 154.3 21.8 152 23.7 148.4 23.7L149.6 26.3C150.2 27.6 151.9 31.7 153.6 33.4L153.5 33.6C152.6 33.6 151.8 33.6 151 33.4 147.8 32.8 146.7 30.5 146 29.1L143.1 22.7 138.7 21.8 141.5 18.5Z" class="a"/><path d="M171.3 42.1L155.5 34.5 155.6 34.3C157 33.9 158.8 30.2 159.3 29.2L159.8 28.1C160.4 26.8 159.9 25.4 159.3 24.7L159.4 24.4C160.3 24.4 161.8 23.9 162.4 22.6L163.9 19.6C164.4 18.6 165.2 16.8 164.7 15.5L164.8 15.3 180.6 22.9 179.7 27.9 179.6 27.8C178.7 26.3 176.1 24.6 173.4 23.3L168 20.7 165.7 25.4 176.4 30.5 172.3 33.4 172.1 33.2C171.7 32.4 170 31.3 168.5 30.6L164.2 28.5 161.7 33.7 165.7 35.6C167.9 36.7 172.8 38.8 175.6 39L175.8 39.1 171.3 42.1Z" class="a"/><path d="M190.8 28.9L190.9 29.1 192.7 30.8 203.8 39.9 205.8 41.1 205.9 41.3 200.6 43.4 200.4 43.3C200.7 42.5 200.4 41.6 199.2 40.6L196.4 38.3 193.7 41.5C192.8 42.7 193 44.2 193.4 45L193.2 45.3C192.3 45 190.8 45.1 189.9 46.2L189.1 47.2C188.4 48.1 185.8 51.3 186.1 52.8L186 52.9 180.9 48.8 181 48.6C182.6 48.6 185.2 45.5 185.9 44.6L186.6 43.7C187.6 42.5 187.4 41 187 40.2L187.1 39.9C188.1 40.2 189.6 40 190.5 38.9L193.1 35.7 190.5 33.5C189.1 32.4 187.5 31.8 186.1 31.6L185.9 31.4 190.8 28.9Z" class="a"/><path d="M203.7 73.2L193.2 59.2 193.3 59C194.7 59.3 198 56.8 199 56.1L199.9 55.4C201.1 54.5 201.2 53 201 52.1L201.3 51.9C202.1 52.4 203.6 52.6 204.8 51.7L207.4 49.7C208.4 49 209.9 47.9 210 46.4L210.2 46.3 220.8 60.3 217.8 64.3 217.6 64.2C217.6 62.4 216 59.8 214.2 57.4L210.6 52.6 206.4 55.7 213.6 65.2 208.6 65.8 208.5 65.6C208.5 64.6 207.5 62.9 206.5 61.6L203.7 57.8 199.1 61.2 201.7 64.8C203.2 66.7 206.6 70.9 209 72.3L209.1 72.5 203.7 73.2Z" class="a"/><path d="M21.6 127.2C24.2 126.9 26.7 128.8 27 132.2 27.3 134.4 26.7 136.2 25.6 137.4L22.5 135.6C23.2 134.8 23.5 134.2 23.4 132.9 23.3 131.8 22.8 131.2 22 131.3 19.2 131.6 20.5 138.6 15 139.1 12 139.4 9.7 137 9.4 133.7 9.2 131.5 9.9 128.7 11.7 127.7L14.5 129.7C13.4 130.8 12.9 132.3 13.1 133.5 13.2 134.5 13.7 135.1 14.5 135 17.1 134.8 16.1 127.7 21.6 127.2" class="a"/><polygon points="28.1 142.9 32 156.5 28.4 157.5 27 152.6 14.1 156.3 13 152.5 25.9 148.8 24.5 143.9" class="a"/><path d="M25.3 174.8C26.9 177.7 29.7 178.1 32.2 176.8 35 175.3 35.8 172.4 34.5 170 33.2 167.5 30.4 166.6 27.6 168.1 25 169.4 24.1 172.4 25.3 174.8M37.8 168.3C40.2 172.9 39 177.9 34.2 180.5 29.6 182.9 24.5 181.2 22.1 176.6 19.7 171.9 20.9 166.9 25.7 164.4 30.1 162.1 35.2 163.5 37.8 168.3" class="a"/><path d="M45.6 187.2L42.7 189.6 43.6 190.7C44.6 191.8 45.7 192.4 46.8 191.4 47.6 190.8 47.9 189.9 46.7 188.4 46.3 188 46.1 187.8 45.6 187.2L45.6 187.2ZM32.8 192.9L45.8 181.8C46.4 182.5 49.3 185.8 49.6 186.2 52.7 189.7 52 192.5 49.6 194.6 47.2 196.6 44.9 196 43.9 195.6L42.1 203.8 39 200.2 40.8 193.1 39.9 192 35.3 195.9 32.8 192.9Z" class="a"/><polygon points="59.5 196.5 67.5 202.8 65.2 205.7 60.3 201.8 58.4 204.1 62.8 207.6 60.5 210.4 56.2 207 54.2 209.4 59.3 213.5 57 216.4 48.9 209.9" class="a"/><path d="M111.7 223.5L111.4 226.6 112.6 226.7C113.6 226.8 114.5 226.5 114.6 225.2 114.7 224.2 113.9 223.6 112.9 223.5 112.4 223.4 112.1 223.5 111.7 223.5L111.7 223.5ZM111 230L110.7 233.1C110.9 233.2 111.2 233.4 112 233.4 113.5 233.6 114.3 233 114.4 231.9 114.5 230.8 113.8 230.3 112.5 230.1L111 230ZM108.2 219.4C109.1 219.5 111.5 219.6 113.3 219.8 117.4 220.3 118.9 222.3 118.6 224.7 118.4 226.5 117.6 227.6 116.3 228.3L116.3 228.3C117.5 228.9 118.5 230.3 118.3 232.5 117.9 236 115 237.4 111.3 237 109.6 236.9 107.4 236.6 106.4 236.4L108.2 219.4Z" class="a"/><path d="M132.4 230L136.2 229.7 133.8 225 132.4 230ZM131.7 220.2L135.2 219.9 143.9 236.2 139.8 236.6 138 233.2 131.3 233.8 130.2 237.6 126.3 237.9 131.7 220.2Z" class="a"/><path d="M152.7 220L153.9 223.6 155.2 223.2C156.6 222.7 157.6 221.8 157.1 220.5 156.8 219.6 156.1 218.8 154.3 219.4 153.7 219.6 153.5 219.7 152.7 220L152.7 220ZM153.1 234L147.8 217.7C148.7 217.4 152.9 216 153.4 215.9 157.8 214.4 160.1 216.1 161.1 219.2 162.1 222.2 160.6 224 159.8 224.7L166.7 229.6 162.1 231.1 156.3 226.7 155 227.1 156.8 232.8 153.1 234Z" class="a"/><path d="M216.3 188.2C216.5 189.7 215.8 192 214.3 193.8 211 197.9 205.9 198.6 201.8 195.2 197.9 192.1 196.8 187.2 200.5 182.7 201.9 180.9 203.8 179.9 205.2 179.7L206.4 182.9C205.4 183.3 204.4 183.7 203.4 185 201.7 187 201.8 189.8 204.4 192 206.7 193.9 209.7 193.6 211.7 191.2 212.4 190.2 213 189 213.1 187.5L216.3 188.2Z" class="a"/><path d="M218.5 173.6L220.2 170.1 215.1 169.6 218.5 173.6ZM209.8 168.8L211.4 165.7 229.9 167.1 228 170.9 224.2 170.5 221.1 176.5 223.7 179.4 221.9 182.9 209.8 168.8Z" class="a"/><polygon points="216.4 153.8 219.1 144.2 222.6 145.2 221 151 224.5 152 225.9 146.9 229.4 147.9 228 153 233.9 154.6 232.9 158.4" class="a"/><polygon points="220.3 137.4 221.3 127.3 224.9 127.6 224.3 133.9 227.3 134.1 227.9 128.7 231.5 129 231 134.5 234.1 134.8 234.7 128.3 238.3 128.7 237.3 139.1" class="a"/><path d="M71.2 62.8C72 63.7 71.9 64.5 71 65.3 70.6 65.7 70.1 65.8 69.8 65.8L69.4 64.6C69.6 64.6 69.8 64.5 70 64.4 70.2 64.2 70.2 63.9 69.9 63.6L66.8 60.1 67.9 59.1 71.2 62.8Z" class="a"/><polygon points="70.2 57.2 71.4 56.3 74.6 60.4 76.7 58.7 77.6 59.9 74.2 62.4" class="a"/><path d="M79 56.7C79.5 56.4 80 56.6 80.2 57 80.5 57.4 80.5 58 80 58.3 79.5 58.6 79 58.4 78.7 58 78.5 57.6 78.5 57.1 79 56.7" class="a"/><path d="M83.5 50.1L84.2 51.4C84.4 51.3 84.6 51.2 84.8 51.1 85.2 50.9 85.5 50.5 85.2 50 84.9 49.5 84.5 49.5 84 49.7 83.9 49.8 83.7 49.9 83.5 50.1L83.5 50.1ZM84.6 55.4L81.5 49.5C81.8 49.4 82.8 48.8 83.2 48.6 85 47.6 86.1 48.2 86.6 49.2 87.2 50.3 86.9 51.6 85.5 52.3 85.4 52.4 85.1 52.6 84.9 52.7L85.9 54.6 84.6 55.4Z" class="a"/><path d="M90.5 49.2L91.9 48.6 90.5 47.2 90.5 49.2ZM89.1 45.7L90.4 45.2 95.5 50.1 94 50.8 93 49.7 90.6 50.8 90.6 52.3 89.2 52.9 89.1 45.7Z" class="a"/><polygon points="101.4 48.2 97.2 45.4 98.4 49.2 97.1 49.6 95.1 43.3 96.2 42.9 100.4 45.8 99.2 42 100.5 41.6 102.5 47.8" class="a"/><polygon points="102.8 41 108.2 39.8 108.5 41.2 106.5 41.6 107.6 46.7 106.2 47 105.1 41.9 103.1 42.3" class="a"/><path d="M112.2 43L113.7 42.8 112.7 41.1 112.2 43ZM111.8 39.2L113.2 39.1 116.8 45.3 115.2 45.5 114.4 44.2 111.8 44.5 111.5 46 110 46.1 111.8 39.2Z" class="a"/><polygon points="118.1 38.6 119.7 38.5 120 45.1 118.5 45.2" class="a"/><path d="M127.2 39.9L127.1 41.1 127.6 41.1C128 41.1 128.3 41 128.4 40.5 128.4 40.1 128 39.9 127.7 39.9 127.5 39.9 127.4 39.9 127.2 39.9L127.2 39.9ZM127.1 42.4L127 43.7C127.1 43.7 127.2 43.7 127.5 43.7 128.1 43.8 128.4 43.5 128.4 43.1 128.4 42.7 128.1 42.5 127.7 42.4L127.1 42.4ZM125.7 38.4C126.1 38.4 127 38.4 127.7 38.5 129.3 38.5 129.9 39.3 129.9 40.2 129.9 40.9 129.6 41.4 129.1 41.6L129.1 41.7C129.5 41.9 130 42.4 129.9 43.2 129.9 44.6 128.8 45.2 127.3 45.1 126.7 45.1 125.8 45.1 125.4 45L125.7 38.4Z" class="a"/><polygon points="132.9 38.9 136.8 39.4 136.6 40.8 134.2 40.5 134.1 41.6 136.2 41.9 136 43.3 133.9 43 133.7 44.2 136.2 44.5 136 45.9 132.1 45.4" class="a"/><path d="M140.8 41.6L140.5 43 141 43.1C141.6 43.2 142.1 43.1 142.2 42.6 142.3 42.2 142.2 41.8 141.5 41.7 141.2 41.6 141.1 41.6 140.8 41.6L140.8 41.6ZM138.2 46.3L139.6 39.9C140 39.9 141.6 40.3 141.8 40.3 143.6 40.7 144 41.7 143.8 42.9 143.5 44.1 142.7 44.4 142.3 44.5L143.6 47.5 141.8 47.1 140.7 44.5 140.2 44.4 139.7 46.6 138.2 46.3Z" class="a"/><path d="M147.7 45.8L149.2 46.2 149 44.2 147.7 45.8ZM149 42.2L150.3 42.6 150.9 49.7 149.4 49.2 149.3 47.7 146.8 47 145.8 48.1 144.4 47.7 149 42.2Z" class="a"/><polygon points="158.2 52.8 156.9 52.2 157.3 47.8 154.4 51.1 153 50.6 153.9 43.7 155.5 44.4 154.8 48.7 157.6 45.4 159 46 158.5 50.3 161.2 46.9 162.5 47.5" class="a"/><path d="M163.8 52.7L165.1 53.4 165.4 51.4 163.8 52.7ZM165.8 49.4L167 50.1 166.1 57.2 164.7 56.4 164.9 54.9 162.6 53.6 161.5 54.5 160.1 53.8 165.8 49.4Z" class="a"/><polygon points="174.5 55 175.3 55.6 171.4 60.9 170.3 60.1 173 56.4 172.2 56.4 172.3 55" class="a"/><path d="M173.5 61.3L174.7 61C174.7 61.5 174.8 62 175.3 62.4 175.7 62.7 176.1 62.7 176.3 62.4 176.6 62 176.5 61.6 175.9 61.1L175.6 60.8 176.5 59.8 176.8 60C177.2 60.3 177.6 60.4 177.9 60.1 178.1 59.9 178.2 59.6 177.8 59.3 177.5 59 177.1 58.9 176.6 59L176.6 57.7C177.4 57.5 178.1 57.7 178.8 58.3 179.7 59 179.9 60 179.3 60.8 178.8 61.4 178.2 61.6 177.5 61.4L177.5 61.4C178 62.1 177.9 62.8 177.4 63.4 176.6 64.4 175.4 64.3 174.4 63.5 173.6 62.8 173.3 61.9 173.5 61.3" class="a"/><polygon points="85 193.2 86.2 193.8 85 196.1 87.9 194.7 89.4 195.5 86.1 196.9 86.8 200.8 85.3 200.1 84.8 196.6 83.5 199.1 82.2 198.5" class="a"/><polygon points="92.4 203.2 91.1 198.8 89.7 202.1 88.6 201.7 90.8 196.2 91.9 196.6 93.1 201 94.5 197.6 95.6 198.1 93.4 203.6" class="a"/><polygon points="97.7 198.9 99 199.3 98.2 201.8 100.9 199.9 102.4 200.4 99.5 202.3 100.8 206.1 99.2 205.6 98.1 202.3 97.2 205 95.9 204.6" class="a"/><path d="M105 202.3L104.7 203.6 105.2 203.7C105.7 203.8 106.2 203.7 106.3 203.2 106.4 202.9 106.3 202.6 105.6 202.4 105.4 202.4 105.3 202.3 105 202.3L105 202.3ZM102.7 206.6L104 200.7C104.3 200.8 105.8 201.1 106 201.2 107.6 201.5 107.9 202.5 107.7 203.5 107.4 204.6 106.7 204.9 106.3 205L107.5 207.7 105.9 207.3 104.9 204.9 104.5 204.8 104 206.9 102.7 206.6Z" class="a"/><polygon points="109.3 201.9 114.2 202.7 114 203.9 112.3 203.7 111.6 208.3 110.2 208.1 110.9 203.5 109.1 203.2" class="a"/><polygon points="115.2 205.1 117.5 205.3 117.4 206.5 115.1 206.3" class="a"/><path d="M120.9 204.4L120.9 205.5 121.3 205.5C121.7 205.5 122 205.4 122 204.9 122 204.6 121.7 204.4 121.3 204.4 121.2 204.4 121.1 204.4 120.9 204.4L120.9 204.4ZM120.9 206.7L120.8 207.8C120.9 207.8 121 207.9 121.3 207.9 121.8 207.9 122.1 207.7 122.1 207.3 122.1 206.9 121.8 206.7 121.4 206.7L120.9 206.7ZM119.6 203.1C119.9 203.1 120.8 203.1 121.4 203.1 122.8 203.2 123.4 203.8 123.4 204.7 123.3 205.3 123.1 205.7 122.6 206L122.6 206C123.1 206.2 123.5 206.6 123.4 207.4 123.4 208.6 122.4 209.2 121.1 209.1 120.6 209.1 119.8 209.1 119.4 209L119.6 203.1Z" class="a"/><path d="M127.3 206.5L128.6 206.5 127.8 204.8 127.3 206.5ZM127.2 203.1L128.4 203.1 131.2 208.9 129.7 209 129.2 207.7 126.8 207.9 126.4 209.1 125 209.2 127.2 203.1Z" class="a"/><polygon points="132.3 202.7 133.7 202.6 134.2 207.2 136.6 206.9 136.8 208.2 133 208.7" class="a"/><polygon points="137.7 202 139 201.7 140.1 207.6 138.8 207.8" class="a"/><path d="M142.8 205.4C143.2 205.3 143.6 205.6 143.7 206 143.8 206.4 143.6 206.9 143.1 207 142.6 207.1 142.2 206.8 142.1 206.4 142 206 142.2 205.5 142.8 205.4" class="a"/><path d="M150.2 204.4C149.9 204.9 149.3 205.4 148.5 205.6 146.7 206.2 145.1 205.3 144.6 203.6 144.2 201.9 144.8 200.3 146.8 199.7 147.5 199.5 148.2 199.6 148.7 199.8L148.4 201C148 200.9 147.7 200.8 147.1 201 146.2 201.2 145.7 202 146 203.2 146.3 204.2 147.2 204.7 148.3 204.4 148.7 204.3 149.1 204 149.4 203.6L150.2 204.4Z" class="a"/><path d="M154.2 202.3C155.3 201.9 155.5 201 155.2 200 154.8 199 153.8 198.6 152.9 199 152 199.3 151.6 200.2 152 201.3 152.3 202.2 153.3 202.7 154.2 202.3M152.5 197.8C154.2 197.1 155.8 197.7 156.5 199.5 157.2 201.2 156.4 202.9 154.7 203.5 153 204.2 151.3 203.6 150.6 201.8 150 200.2 150.7 198.5 152.5 197.8" class="a"/><polygon points="157 196 158.3 195.4 161 196.8 161.4 193.8 162.6 193.2 165.3 198.5 164.1 199.1 162.4 195.8 161.9 198.6 161.7 198.7 159.2 197.4 160.9 200.7 159.7 201.3" class="a"/><path d="M27.7 97.1C27.7 100.4 25.1 103 21.9 103 18.6 103 16 100.4 16 97.1 16 93.9 18.6 91.3 21.9 91.3 25.1 91.3 27.7 93.9 27.7 97.1" class="a"/><path d="M231.3 97.1C231.3 100.4 228.7 103 225.4 103 222.2 103 219.6 100.4 219.6 97.1 219.6 93.9 222.2 91.3 225.4 91.3 228.7 91.3 231.3 93.9 231.3 97.1" class="a"/><g fill="#AC975E"><path d="M143.1 178.1C144.3 180.3 145.4 182.5 145.3 185.1 145.2 186.5 144.6 187.5 143.6 187.9 142.3 188.4 140.8 188.1 139.9 187.1 139.1 186 139.2 184.7 139.6 183.5 139.8 182.8 140.4 182.3 140.8 181.7 141.6 180.5 142.4 179.3 143.1 178.1"/><path d="M89.2 174C90 175.4 90.8 176.8 91.4 178.2 91.8 179.2 91.9 180.3 91.9 181.3 92 183.1 91.1 184 89.5 184.1 87.3 184.1 86.2 183.2 86 181.4 85.9 180.1 86.5 179 87.1 178 87.8 176.8 88.4 175.5 89.2 174"/><path d="M165.6 101.3C165.8 101.2 166 101.1 166.2 100.9 166.2 100.9 166.2 100.9 166.2 100.9 166 100.9 165.9 100.9 165.7 100.9 165 100.8 164.3 100.7 163.5 100.7 163.1 100.7 162.6 100.7 162.1 100.7 160.8 100.8 159.5 101.2 158.4 102 157.5 102.6 156.9 103.2 156.6 104.1 156.3 105 156.3 105.6 156.6 106.2L156.6 106.3C156.7 106.4 156.7 106.5 156.8 106.5 156.8 106.5 156.8 106.5 156.9 106.5 156.9 106.5 157 106.5 157 106.5 157.3 106.4 157.5 106.4 157.7 106.4 158.1 106.3 158.4 106.3 158.7 106.3 158.9 106.2 159.1 106.2 159.2 106.2 160.1 106.2 160.9 106.2 161.8 106.2 162.2 106.3 162.6 106.3 163 106.3 163.1 106.3 163.1 106.3 163.1 106.3 163.1 106.2 163.1 106.2 163.1 106.1 163 105.4 162.9 104.6 163.3 103.8 163.8 102.8 164.6 102 165.6 101.3"/><path d="M192.9 96C192.8 96 192.7 95.9 192.6 95.9 192.3 95.8 191.9 95.7 191.6 95.6 191.3 95.5 190.9 95.5 190.6 95.5 189.8 95.5 189 95.6 188.2 95.6 184.9 96.2 181.9 96.5 179.2 96.7 179.2 97.6 179.3 98.4 179.6 99 179.7 99.5 180 99.8 180.3 100 180.4 100.1 180.5 100.2 180.6 100.3 181 100.9 181.6 101.4 182.4 101.8 182.6 101.9 182.7 101.9 182.7 101.9 182.8 101.9 182.8 101.7 182.8 101.5 182.8 101.5 182.8 101.5 182.8 101.4 182.8 101.2 182.8 101.1 182.8 100.9 183 100 183.3 99.5 183.7 99.1 184.3 98.6 185 98.3 185.7 98.3 186.1 98.3 186.6 98.3 187 98.4 187.3 98.5 187.5 98.5 187.7 98.7 188.3 99.4 188.6 100.4 188.3 101.2 188.1 101.5 188 101.9 187.8 102.4 187.8 102.5 187.8 102.6 187.7 102.7 188.4 102.9 189.1 102.9 189.8 102.9 190.5 102.8 191.2 102.6 192 102.3 192.1 102.2 192.3 102.1 192.3 102 193.1 100.6 193.6 99.2 193.9 97.8 194 97.2 193.5 96.2 192.9 96"/><path d="M155.6 103L155.5 103.1C155.2 103.2 154.8 103.3 154.4 103.5 154 103.7 153.5 103.9 153 104.1 152.7 104.2 152.5 104.4 152.3 104.5 151.6 105 151 105.8 150.5 106.7 150.3 107.2 150.2 107.6 150.2 108 150.3 108 150.3 107.9 150.4 107.9 150.8 107.8 151.2 107.7 151.6 107.5 151.6 107.5 151.7 107.5 151.8 107.5 151.9 107.4 152 107.4 152.2 107.4 152.4 107.3 152.6 107.4 152.7 107.5 152.8 107.5 152.8 107.5 152.8 107.5 152.8 107.4 152.9 107.4 152.9 107.4 153.6 107.3 154.4 107.1 155.2 106.9 155.2 106.9 155.3 106.8 155.3 106.8 155.2 106.2 155.1 105.5 155.1 104.8 155.1 104.2 155.3 103.8 155.5 103.3 155.5 103.2 155.6 103.1 155.6 103"/><path d="M192.3 107.2C192.5 106.5 192.6 105.6 192.4 104.8 192.3 104.5 192.3 104.2 192.3 104 192.3 103.8 192.3 103.7 192.3 103.6 192.3 103.6 192.3 103.6 192.3 103.6 192.2 103.6 192.1 103.6 192 103.7 191.9 103.7 191.9 103.7 191.8 103.7 191.1 103.9 190.5 104.1 189.8 104.2 189.6 104.2 189.3 104.2 189.1 104.2 188.5 104.1 187.8 104.1 187 103.9 186.7 103.9 186.6 103.8 186.5 103.6 186.3 103.4 186.4 103.2 186.4 103 186.5 102.6 186.6 102.2 186.7 101.8 186.8 101.6 186.9 101.4 187 101.2 187.1 101 187.1 100.8 187.2 100.7 187.3 100.4 187.2 100.2 187.1 100 187 99.7 186.8 99.6 186.5 99.5 186.3 99.5 186.2 99.5 186 99.5 185.7 99.5 185.4 99.6 185 99.7 184.6 99.9 184.2 100.2 184 100.7 183.9 101.1 183.9 101.4 183.9 101.8 184 101.9 184 102.1 184 102.2 184 102.3 184.1 102.5 184.1 102.6 184.1 102.9 184.1 103.1 184 103.2 183.9 103.3 183.8 103.4 183.5 103.4 183.5 103.4 183.4 103.4 183.3 103.4 182.3 103.2 181.6 102.9 181 102.4 180.7 102.1 180.4 101.8 180.1 101.6 179.9 101.4 179.8 101.4 179.7 101.4 179.7 101.4 179.7 101.4 179.6 101.4 179.3 101.5 179 101.6 178.7 101.6 178.3 101.6 178 101.6 177.6 101.6 175.8 101.7 173.8 101.8 171.9 101.3 171.1 101.1 170.2 101.2 169.3 101.3 169.2 101.3 169 101.3 168.8 101.3L168.8 101.3C168.7 101.3 168.6 101.3 168.5 101.4 167 101.9 165.9 102.6 165.1 103.5 164.3 104.3 164.1 105.1 164.3 106 164.4 106.2 164.4 106.3 164.5 106.4 164.5 106.4 164.7 106.4 164.8 106.4 164.9 106.4 165 106.4 165.1 106.4 165.5 106.5 165.9 106.5 166.3 106.5 168 106.8 169.5 107.1 170.8 107.6 171.5 107.8 172.3 108.1 173.2 108.5 173.4 108.6 173.7 108.7 174 108.8 174.8 109.2 175.7 109.5 176.6 110 178.3 110.9 179.9 111.5 181.4 111.8 182.1 112 182.8 112 183.5 112 184.2 111.9 184.9 111.7 185.6 111.4 186.8 110.9 187.7 110.1 188.3 109.2 188.4 109 188.5 108.9 188.6 108.7 188.7 108.6 188.8 108.4 188.9 108.2 189 108.1 189.2 108 189.3 107.9 189.5 107.9 189.6 108 189.7 108 190 108.2 190.1 108.5 189.9 108.8 189.9 108.9 189.8 109.1 189.7 109.2 189.7 109.2 189.6 109.3 189.5 109.4 189.5 109.5 189.4 109.6 189.3 109.7 189 110.3 188.5 110.9 187.8 111.5 187.9 111.5 188 111.5 188.1 111.4 188.2 111.4 188.3 111.4 188.4 111.4 188.4 111.4 188.5 111.4 188.5 111.4 189.4 111.3 190.1 110.9 190.8 110.2 191.6 109.4 192.1 108.4 192.3 107.2"/><path d="M145.4 98.5C145.6 98.5 145.8 98.5 146 98.5 146.6 98.4 147.3 98.1 147.9 97.6 146.4 97.3 145.1 97 143.6 97.2 143.9 98 144.5 98.4 145.4 98.5"/><path d="M149.8 98.6C149.9 98.6 150 98.5 150.1 98.4 149.9 98.3 149.8 98.3 149.6 98.2 149.6 98.1 149.5 98.1 149.4 98.1 149.3 98.1 149.3 98.2 149.2 98.3 148.8 98.8 148.3 99.1 147.9 99.3 147.3 99.7 146.7 99.9 146 99.9 145.3 100 144.5 99.8 143.8 99.5 143.3 99.2 143 98.8 142.7 98.5 142.6 98.3 142.5 98.2 142.4 98.1 142.2 97.9 142.1 97.7 142 97.4 142 97.4 142 97.3 142 97.3 141.6 97.3 141.1 97.4 140.6 97.6 140.6 97.7 140.6 97.8 140.6 97.9 140.7 98.2 140.8 98.5 141.1 98.7 141.2 98.8 141.2 98.9 141.3 99 141.5 99.5 141.9 99.9 142.4 100.2 142.4 100.3 142.5 100.3 142.5 100.3 143 100.7 143.7 101 145.2 100.9 145.3 100.9 145.4 100.9 145.4 100.9 147.1 100.8 148.6 100 149.8 98.6"/><path d="M187.5 114.6C187.6 114.5 187.7 114.4 187.8 114.4 188 114.3 188.1 114.2 188.2 114.1 188.7 113.7 189 113.2 189.2 112.7 188.9 112.7 188.6 112.8 188.4 112.8 187.7 112.8 187.2 112.8 186.6 112.6 186.5 112.6 186.4 112.6 186.3 112.6 186.2 112.6 186.1 112.6 185.9 112.7 185.2 113 184.5 113.2 183.5 113.3 182.4 113.4 181.2 113.2 180.2 112.9 178.5 112.4 176.9 111.6 175.6 110.9 174.8 110.5 174 110.2 173.3 109.9 172.2 109.5 171.1 109 170 108.7 168.9 108.3 167.8 108.1 166.6 108 166.2 107.9 165.7 107.9 165.3 107.8 164.7 107.8 164 107.7 163.4 107.6 162.8 107.6 162.2 107.6 161.6 107.6 161.5 107.6 161.4 107.6 161.3 107.6 160.3 107.6 159.3 107.6 158.4 107.7 157.9 107.7 157.6 107.7 157.2 107.8 156.5 107.9 155.9 108.1 155.2 108.2 154.9 108.3 154.6 108.4 154.4 108.4 154.3 108.5 154.2 108.5 154.1 108.5 153.9 108.5 153.7 108.6 153.5 108.7 153 108.8 152.6 108.9 152.2 109 151.9 109.1 151.7 109.2 151.4 109.3 151.3 109.3 151.3 109.3 151.3 109.3 151.2 109.4 151.1 109.4 150.9 109.4 150.9 109.4 150.8 109.4 150.8 109.4 150.7 109.4 150.6 109.4 150.4 109.4 150 109.4 149.6 109.7 149.2 110L149.1 110C148.2 110.6 147.3 111.3 146.4 111.9 145.8 112.3 145.3 112.8 144.8 113.3 144.4 113.7 144 114.1 143.6 114.5 143.4 114.7 143.2 114.9 143 115.2 142.9 115.3 142.7 115.4 142.6 115.6 142.2 116 141.7 116.4 141.3 116.9 140.6 117.5 140 118.3 139.4 119.1 139.3 119.2 139.2 119.4 139.1 119.6 138 121.1 137.1 122.5 136.4 123.9 136 124.9 135.8 125.7 135.7 126.5 135.7 126.8 135.9 127.1 136.2 127.2 136.6 127.3 136.9 127.4 137.2 127.4 137.4 127.3 137.6 127.3 137.7 127.3 138.3 127.3 138.9 127.2 139.5 127.1 139.9 127 140.4 126.9 141 126.9 141.5 126.8 142 126.8 142.5 126.8L142.8 126.8C143.2 126.8 143.6 126.7 143.9 126.8 143.1 126.4 142.2 126 141.4 125.5 141 125.4 140.7 125.1 140.4 124.8 140.3 124.8 140.3 124.7 140.2 124.7 140 124.6 140 124.3 140 124.2 139.9 123.1 140.2 122.1 140.8 121.1 141.3 120.1 142.1 119.3 142.8 118.6 142.9 118.4 143.1 118.2 143.3 118 143.5 117.8 143.6 117.6 143.8 117.4 144.3 116.9 144.7 116.3 145.3 115.8 145.5 115.7 145.6 115.5 145.8 115.4 146.4 114.9 147 114.3 147.8 114 147.9 114 148.1 113.9 148.2 113.8 148.3 113.7 148.4 113.6 148.5 113.6 149.1 113.1 149.9 112.9 150.6 112.6 150.7 112.6 150.9 112.5 151.1 112.5 152.1 112.1 153.5 111.6 154.9 111.2L155.1 111.1C156 110.9 157 110.6 158.1 110.5 158.3 110.5 158.5 110.5 158.7 110.5 159.2 110.5 159.6 110.4 160.1 110.4 160.6 110.4 161.1 110.4 161.6 110.4 162.2 110.4 162.8 110.4 163.3 110.5 163.7 110.5 164 110.6 164.3 110.6 166.2 110.7 168 111 169.8 111.3 171.2 111.6 172.6 112 173.6 112.3 174.4 112.5 175.1 112.7 175.9 112.9 176.4 113.1 177 113.2 177.5 113.3 178.9 113.7 180.5 114.2 182 114.7 183.3 115.1 184.4 115.3 185.4 115.3 186.2 115.3 186.8 115.1 187.5 114.6"/><path d="M176.5 119.3C177.2 118.8 178.9 117 179.5 114.9 178.2 114.5 176.6 114 175 113.6 175.5 115 175.9 116.9 175.6 119.3 175.6 119.3 175.7 119.8 176.5 119.3"/><path d="M138.2 113.3C138.1 113.4 137.9 113.5 137.7 113.7 137.3 114.2 136.8 114.8 136.2 115.5 136.4 115.4 136.6 115.3 136.9 115.2 137.4 114.9 137.9 114.6 138.6 114.4 138.7 114.4 138.9 114.3 139 114.3L139.1 114.2C139.2 114.2 139.3 114.2 139.4 114.1 139.6 114.1 139.8 114.2 140 114.4 140.4 114.8 140.2 115.1 140.1 115.3 140 115.6 139.9 115.9 139.7 116.2 139.7 116.3 139.6 116.5 139.6 116.6 140.1 116.1 140.6 115.5 141.1 115 141.3 114.8 141.5 114.6 141.7 114.4 142.8 113.3 143.9 112.2 145.2 111.2 145.6 110.9 146.1 110.6 146.5 110.2 146.8 110 147.2 109.7 147.5 109.4 147.8 109.2 148.2 108.9 148.5 108.8 148.6 108.7 148.7 108.6 148.8 108.6 148.8 107.8 148.9 107.1 149.1 106.3 147.8 107.2 146.4 107.6 145 107.9 144.3 108.1 143.5 108.2 142.8 108.3 142 108.4 141.3 108.4 140.5 108.3 139.9 108.3 139.3 108.2 138.7 108.1 138.4 108.1 138.2 108.1 137.9 108 137.5 108 137.1 107.9 136.7 107.9 136.1 107.8 135.5 107.7 134.9 107.6 134.6 107.6 134.3 107.6 134 107.6 133.6 107.5 133.1 107.5 132.7 107.4 132.3 107.3 131.8 107.4 131.4 107.7 130.3 108.4 129.3 109.2 128.3 110.1 128.5 110 128.6 110 128.8 109.9 129.4 109.7 130 109.6 130.6 109.5 130.8 109.5 131 109.5 131.3 109.5 131.5 109.5 131.8 109.5 132.2 109.4 132.4 109.4 132.7 109.4 132.9 109.4 133.1 109.3 133.4 109.3 133.6 109.3 133.6 109.3 133.7 109.3 133.7 109.3 133.7 109.3 133.8 109.3 133.9 109.3 134.3 109.3 134.6 109.5 134.7 109.8 134.8 110.3 134.5 110.5 134.3 110.6 134.2 110.7 134.1 110.8 133.9 110.9 133.5 111.1 133.2 111.4 132.8 111.7 132.5 112 132.3 112.4 132 112.8 132 112.8 132 112.8 131.9 112.9 132.1 112.8 132.2 112.8 132.4 112.7 133.2 112.5 133.9 112.2 134.8 112.1 135.6 112.1 136.4 112 137.2 111.9 137.5 111.9 137.9 111.8 138.2 111.8L138.4 111.8 138.5 111.9C138.8 112.5 138.9 112.9 138.2 113.3"/><path d="M182.2 119.5C184.2 119 184.9 117.3 185.1 116.5 184.4 116.4 183.3 116.1 181.8 115.6 182.2 116.7 182.1 118.6 181.8 119.1 181.5 119.6 182.2 119.5 182.2 119.5"/><path d="M179.3 90.2C179.7 90 180.3 90 180.7 90.1 182.3 90.5 183.8 91 185.6 91.6 185.2 90.4 185.9 90.4 186.5 90.3 186.5 90.5 186.6 90.7 186.6 91 187 90.7 187.3 90.5 187.8 90.1 185.9 89.5 184.2 88.9 182.5 88.3 182.5 88.3 182.5 88.2 182.5 88.2L183.1 87.8C183.3 87.7 183.6 87.7 183.8 87.7 185.1 88.1 186.3 88.5 187.5 89 189.1 89.5 190 89.3 191.1 87.8 189.4 87.3 187.7 86.7 186 86.2 186 86.1 186 86.1 186 86L186.4 85.7C186.7 85.6 187 85.5 187.3 85.6 188.1 85.7 188.8 86.1 189.5 86.3 191.3 86.9 193.1 87.8 194.6 85.7 192.9 85.1 191.2 84.6 189.5 84 189.5 83.9 189.4 83.9 189.4 83.8L189.9 83.6C190.2 83.4 190.5 83.3 190.8 83.4 191.5 83.5 192.3 83.9 193 84.2 194.8 84.8 196.5 85.6 198 83.5 196.3 82.9 194.6 82.4 192.7 81.8 193.4 81.3 193.9 80.9 194.5 80.5 194 79.9 193.7 79.2 193.2 79 192.8 78.8 192.2 79.2 191.6 79.4L191.6 79.3 191.5 79.4C191.7 77.5 191.9 75.8 192.1 74 192 73.9 192 73.9 191.9 73.8 191.1 74.5 190.1 75.1 189.8 75.9 189.3 77.3 189.4 78.8 189.2 80.3 189.1 80.5 189 80.7 188.9 81L188 81.6C188.2 79.8 188.4 77.9 188.7 76.1 188.6 76.1 188.5 76.1 188.5 76.1 188.3 76.6 188.1 77.1 187.8 77.8 187.7 77.3 187.6 77.1 187.4 76.5 186.9 77.2 186.3 77.7 186.2 78.3 186 79.7 186 81.1 185.7 82.5 185.7 82.7 185.6 82.9 185.4 83.1L184.5 83.7C184.8 81.9 185 80.2 185.2 78.4 185.1 78.3 185 78.2 184.9 78.2 184.2 78.9 183.2 79.5 182.9 80.3 182.4 81.6 182.5 83.1 182.3 84.5 182.2 84.8 182.1 85.1 182 85.4L181.1 85.9C181.3 84.1 181.5 82.3 181.8 80.5 180.1 81.1 179 82 179.2 83.8 179.2 84.1 179.1 84.5 179.1 84.8 179.1 85.9 178.9 86.9 178.3 87.6L167.5 94.5C168.9 94.8 170.3 95 171.4 95.2L179.3 90.2Z"/><path d="M151.2 99C151 99.2 150.8 99.4 150.7 99.6 150.3 99.9 150 100.3 149.6 100.6 149.6 100.6 149.6 100.6 149.6 100.6 150 100.4 150.4 100.2 150.8 100 151.1 99.8 151.3 99.7 151.6 99.5 151.9 99.4 152.2 99.2 152.5 99 152.1 98.9 151.8 98.9 151.5 98.8 151.5 98.8 151.4 98.9 151.2 99"/><path d="M147.8 119.3C148.2 118.9 149.4 117 149.5 114.4 148.7 114.9 148 115.4 147.2 116 147.4 116.9 147.4 118.1 147.3 119.3 147.3 119.3 147.4 119.8 147.8 119.3"/><path d="M168.7 119.2C169.5 118.6 171.5 115.8 171.9 112.8 170.3 112.4 168.7 112.1 167.2 111.9 167.7 113.6 168.1 116.2 167.8 119.2 167.8 119.2 168 119.9 168.7 119.2"/><path d="M153.6 119.3C154.3 118.6 156.2 115.6 156.4 112.5 156.4 112.3 156.4 112.2 156.4 112.1 155 112.3 153.7 112.6 152.5 113.1 152.8 114.7 153 116.8 152.8 119.3 152.8 119.3 153 119.9 153.6 119.3"/><path d="M160.9 119.2C161.7 118.4 163.8 115.1 164.1 111.6 163.4 111.5 162.6 111.5 161.9 111.5 161.1 111.6 160.3 111.6 159.6 111.7 160 113.6 160.3 116.2 160 119.2 160 119.2 160.2 120 160.9 119.2"/><path d="M56.7 123L57.7 123C56.6 124.4 55.4 125.7 54.3 127.1 56 127.5 57.3 127.4 58.2 125.8 58.3 125.5 58.6 125.2 58.8 124.9 59.4 124 60.1 123.4 61 123L67.1 123C69.8 122 75 121.6 77.5 120.3L61.5 120.3C61 120.2 60.5 119.9 60.2 119.6 59.1 118.4 58.1 117.2 57 115.8 56.6 117 56 116.7 55.5 116.3 55.5 116.2 55.6 116 55.8 115.7 55.3 115.8 54.8 115.8 54.3 115.8 55.5 117.4 56.7 118.8 57.8 120.1 57.8 120.2 57.7 120.2 57.7 120.3L57.1 120.3C56.8 120.2 56.5 120.2 56.4 120 55.5 119 54.7 118 53.9 117 52.9 115.7 52 115.4 50.3 116 51.4 117.4 52.6 118.7 53.7 120.1 53.7 120.2 53.6 120.2 53.6 120.3L53.1 120.3C52.8 120.2 52.5 120.1 52.3 119.9 51.7 119.4 51.3 118.7 50.8 118.1 49.6 116.7 48.6 115 46.2 116 47.3 117.3 48.5 118.7 49.6 120.1 49.6 120.2 49.5 120.2 49.5 120.3L49 120.3C48.7 120.2 48.4 120.1 48.2 119.9 47.6 119.4 47.2 118.7 46.7 118.1 45.5 116.6 44.5 115 42.1 116 43.2 117.3 44.4 118.7 45.6 120.3 44.8 120.3 44.2 120.3 43.5 120.4 43.6 121.1 43.4 121.9 43.7 122.3 44 122.7 44.7 122.7 45.3 122.9L45.3 123 45.4 123C44.3 124.4 43.1 125.8 42 127.1 42 127.2 42.1 127.4 42.1 127.5 43.1 127.3 44.3 127.3 45 126.8 46.2 125.9 46.9 124.5 47.9 123.4 48 123.2 48.2 123.1 48.5 123L49.6 123C48.4 124.4 47.2 125.8 46.1 127.2 46.1 127.2 46.2 127.3 46.2 127.4 46.6 127 47.1 126.7 47.7 126.2 47.6 126.7 47.5 127 47.4 127.6 48.2 127.2 48.9 127.1 49.3 126.7 50.3 125.6 51 124.4 52 123.4 52.1 123.2 52.3 123.1 52.5 123L53.6 123C52.5 124.4 51.3 125.7 50.2 127.1 50.2 127.2 50.3 127.3 50.3 127.5 51.3 127.2 52.5 127.3 53.2 126.8 54.3 125.9 55 124.6 56 123.5 56.2 123.3 56.4 123.1 56.7 123"/><path d="M96.3 102.6C96.4 102.6 96.5 102.6 96.6 102.6 96.7 102.6 96.8 102.7 96.9 102.6L97 102.6C98.4 102.4 99.8 102.2 101.2 102 102 101.8 102.7 101.7 103.4 101.5 103.7 101.4 104.1 101.3 104.4 101.2 104.7 101.1 105.1 101.1 105.4 101 106 100.8 106.7 100.6 107.4 100.5 108.6 100.2 109.7 100 110.8 99.9 111.4 99.9 112 99.9 112.6 99.9 114.3 99.8 116.1 100.1 118 100.6 118.2 100.7 118.3 100.7 118.5 100.8 119 100.9 119.5 101.1 120 101.1 120.3 101.1 120.5 101.2 120.7 101.4 120.8 101.5 120.9 101.8 120.9 102.1 120.8 102.3 120.6 102.4 120.4 102.5 120.3 102.5 120.2 102.5 120.1 102.4 119.9 102.4 119.6 102.3 119.3 102.3 118.8 102.1 118.2 102 117.7 101.9 115.7 101.3 114 101.1 112.3 101.1 112.1 101.2 111.8 101.2 111.6 101.2 111.7 101.2 111.9 101.3 112 101.3 112.7 101.5 113.4 101.6 114.1 101.9 114.9 102.1 115.6 102.5 116.4 102.9 116.9 103.1 117.4 103.3 118 103.5 118.2 103.6 118.4 103.6 118.6 103.7 118.8 103.8 119 103.8 119.2 103.9 119.5 104 119.8 104.1 120 104.2 120.3 104.2 120.4 104.6 120.4 104.8 120.4 105 120.1 105.2 119.9 105.2 119.8 105.2 119.8 105.2 119.8 105.2 119.1 105.3 118.5 105.1 117.9 104.9 117.8 104.9 117.7 104.8 117.7 104.8 116.8 104.6 116 104.2 115.2 103.8 114.7 103.6 114.1 103.3 113.6 103.1 112.4 102.6 111.2 102.3 110 102.2 111.2 103 112.3 103.8 113.3 104.8 113.7 105.1 114 105.3 114.3 105.5 114.6 105.6 114.8 105.7 115 105.8 115.2 105.9 115.3 106 115.5 106.1 115.5 106.1 115.6 106.1 115.7 106.1L115.8 106.2C115.8 106.2 115.9 106.2 115.9 106.2 116 106.2 116.1 106.2 116.1 106.2 116.5 106.4 116.7 106.7 116.6 107 116.6 107.3 116.4 107.5 116.1 107.5 116 107.6 115.9 107.6 115.9 107.5 115.8 107.5 115.7 107.5 115.6 107.5 115.2 107.4 114.9 107.4 114.5 107.2 113.5 106.7 112.4 105.9 111.3 104.8 110.4 104 109.3 103.5 108.4 103.1 108.1 102.9 107.8 102.8 107.5 102.7 107.3 102.6 107 102.5 106.8 102.4 106.4 102.3 106.1 102.2 105.7 102.4 105.1 102.5 104.4 102.7 103.7 102.8 103.4 102.9 103.1 103 102.8 103.1 102.6 103.1 102.3 103.2 102.1 103.2 102 103.3 101.9 103.3 101.7 103.3 101.7 103.3 101.6 103.4 101.6 103.4 101.5 103.4 101.4 103.4 101.3 103.4 100 103.6 98.8 103.8 97.6 103.9L96.5 104C96.5 104 96.5 104 96.5 104 96.4 104 96.3 104.1 96.3 104.1 95.8 104 95.5 103.8 95.5 103.4 95.5 103 95.8 102.6 96.3 102.6M132.9 93.2C133 93.1 133.2 93 133.3 93 133.5 93 133.6 93 133.7 93L133.8 93.1C133.9 93.1 134.1 93.1 134.2 93.2 134.6 93.3 135 93.4 135.4 93.5 135.6 93.6 135.8 93.6 136.1 93.6 135.9 93.4 135.8 93.3 135.7 93.1 135.6 93 135.5 92.9 135.4 92.8 135.2 92.7 135.1 92.5 134.9 92.3 134.8 92.2 134.7 92 134.7 91.8 134.5 91.4 134.8 91.1 134.9 91 135 90.9 135.1 90.9 135.3 90.9 135.4 90.9 135.6 90.9 135.7 91 136.2 91.3 136.7 91.4 137.3 91.5 138.1 91.6 138.9 91.6 139.7 91.6 140.4 91.5 141 91.4 141.7 91.3 141.9 91.2 142.2 91.2 142.5 91.2 142.4 91.1 142.4 91 142.4 91 142.3 90.7 142.2 90.4 142 90.2 141.7 89.9 141.6 89.5 141.6 89.1 141.6 88.9 141.8 88.6 142 88.5 142.1 88.5 142.1 88.5 142.2 88.5 142.3 88.5 142.6 88.6 142.7 88.7 143.2 89.3 143.8 89.5 144.4 89.7 144.6 89.7 144.7 89.8 144.8 89.8 145.9 90.2 147 90.4 148.3 90.6 148.7 90.7 149.1 90.9 149.4 91.1 149.5 91.2 149.6 91.2 149.7 91.3L149.7 91.3C150.6 91.7 151.5 92.2 152.2 93 152.5 93.3 152.7 93.6 152.9 93.8 153.1 94.1 153.3 94.3 153.6 94.6 154.4 95.5 155.2 96.2 156 96.9 156.7 97.4 157.4 97.6 158.4 97.7L158.5 97.7C158.6 97.7 158.7 97.8 158.9 97.8 159.1 97.8 159.2 98 159.3 98.1 159.3 98.2 159.3 98.4 159.3 98.5 159.2 98.8 158.9 98.9 158.7 98.9 158.4 98.9 158.2 98.9 158 98.8 157.8 98.8 157.7 98.8 157.6 98.8 157.5 98.8 157.3 98.8 157.1 98.7L157.1 98.7C157 98.8 157 98.8 157 98.8 157 99.2 156.8 99.5 156.3 99.5 156.3 99.5 156.3 99.5 156.3 99.5 156 99.5 155.7 99.5 155.5 99.5 155.4 99.5 155.3 99.5 155.2 99.5 154.4 99.6 153.7 100 153 100.3L153 100.3C152.4 100.6 151.8 100.9 151.2 101.3 150.7 101.5 150.1 101.8 149.6 102.1 149.2 102.3 148.8 102.5 148.4 102.6 148.2 102.7 148 102.8 147.8 102.9 147.5 103 147.3 103.1 147.1 103.2 147 103.3 146.9 103.3 146.8 103.3 146.8 103.3 146.8 103.3 146.8 103.4 146.7 103.4 146.7 103.4 146.6 103.5 146.3 103.5 146.1 103.6 145.9 103.7 144.8 104 143.8 104.3 142.7 104.4L142.7 104.4C142.3 104.4 141.9 104.4 141.6 104.4 141.4 104.3 141.3 104.3 141.1 104.3 139.4 104.3 137.8 103.7 136.3 103.3 136.2 103.2 136 103.2 135.9 103.2 135.3 103.1 134.9 102.8 134.7 102.3L134.7 102.2 134.8 102.1C134.9 101.8 135.1 101.6 135.3 101.6 135.4 101.6 135.6 101.6 135.8 101.7L135.8 101.7C136 101.8 136.2 101.8 136.5 101.9 137.4 102.2 138.3 102.5 139.2 102.7 140.2 102.9 140.9 103 141.6 103 141.9 102.9 142.1 102.9 142.3 102.9 142.7 102.9 142.9 102.9 143.2 102.9 144 102.8 144.8 102.6 145.5 102.3 145.2 102.3 145 102.3 144.7 102.3 143.4 102.3 142.2 101.9 141.2 101.1 140.4 100.4 139.8 99.7 139.4 98.8 139.3 98.5 139.3 98.3 139.2 98.1 139.2 98.1 139.2 98.1 139.2 98.1 139.1 98.1 139.1 98.1 139 98.1 138.7 98.3 138.3 98.4 138 98.5 137.5 98.7 137.1 98.9 136.6 99.1 135.7 99.5 134.8 99.9 133.9 100.3 133.4 100.5 132.8 100.6 132.2 100.7L132.1 100.7C131.9 100.7 131.6 100.8 131.4 100.8 131.2 100.8 131.1 100.8 130.9 100.8 130.8 100.8 130.7 100.8 130.5 100.9L130.5 100.9C130.4 100.9 130.3 100.9 130.1 100.9 129.8 100.8 129.5 100.6 129.5 100.2 129.5 99.8 129.7 99.5 130.1 99.5 130.2 99.5 130.4 99.5 130.5 99.5 130.7 99.4 131 99.4 131.3 99.4 131.3 99.4 131.4 99.4 131.5 99.4 132.1 99.3 132.8 99.2 133.5 98.9 133.7 98.8 133.8 98.7 134 98.7 134.9 98.3 135.9 97.9 136.8 97.4 138.1 96.8 139.5 96.4 140.7 96.1 141.2 96 141.6 95.9 142 95.9 142.1 95.9 142.2 95.9 142.2 95.9 142.6 95.8 142.9 95.8 143.2 95.8 143.6 95.7 143.9 95.7 144.3 95.7 144.8 95.6 145.4 95.7 145.9 95.8 146.1 95.9 146.3 95.9 146.5 95.9 146.8 96 147.2 96.1 147.6 96.2 147.7 96.2 147.9 96.2 148 96.3 148.7 96.4 149.2 96.6 149.7 96.7 150.8 97.1 152 97.5 153.2 97.7 153.9 97.9 154.6 98 155.3 98.1 155.4 98.1 155.6 98.1 155.7 98.1 155.7 98.1 155.6 98 155.5 98 154.5 97.4 153.8 96.6 153 95.8L153 95.8C152.6 95.3 152.2 94.9 151.8 94.5 151.7 94.3 151.5 94.1 151.3 93.9 151.3 93.8 151.2 93.8 151.2 93.7L151 93.6C150.2 93 149.3 92.4 148.3 92 148 91.9 147.7 91.8 147.4 91.8 147.3 91.7 147.2 91.7 147.1 91.7 146.8 91.6 146.5 91.6 146.2 91.5 145.7 91.4 145.1 91.3 144.6 91.1 144.4 91.1 144.2 91 144 90.8 143.9 90.8 143.8 90.8 143.7 90.7 143.8 90.8 143.8 90.8 143.9 90.9 144.2 91.2 144.6 91.5 145.1 91.6 145.5 91.8 145.7 92 145.8 92.4L145.8 92.5 145.7 92.6C145.5 92.9 145.2 93 144.9 92.9 144.8 92.9 144.7 92.8 144.6 92.8 144.5 92.8 144.4 92.7 144.3 92.7 143.6 92.5 142.9 92.4 142.2 92.5 142 92.5 141.8 92.5 141.5 92.5 140.9 92.7 140.2 92.8 139.5 92.8 139.1 92.9 138.6 92.9 138.2 92.9 137.8 92.8 137.4 92.8 137 92.7 137 92.7 137 92.7 137 92.7 137 92.8 137.1 92.8 137.1 92.8 137.4 93.1 137.7 93.3 138 93.4 138.2 93.5 138.4 93.5 138.7 93.4 138.8 93.4 138.9 93.4 139 93.4 139.1 93.4 139.2 93.4 139.3 93.4 139.3 93.4 139.4 93.4 139.5 93.4 139.5 93.4 139.6 93.4 139.7 93.4 139.8 93.4 140.1 93.5 140.2 93.7 140.3 93.9 140.3 94.1 140.2 94.2 140.1 94.4 140 94.5 139.8 94.5 139.6 94.5 139.4 94.6 139.2 94.6 138.9 94.7 138.7 94.8 138.4 94.9 138.2 94.9 138 94.9 137.9 94.8 137.6 94.8 137.2 94.8 136.9 94.8 136.7 94.8 136.4 94.8 136.2 94.8 135.9 94.8 135.5 94.8 135.2 94.8L134.9 94.8 134.9 95.2 134.7 95.2C134.3 95.3 134 95.1 133.7 94.9 133.7 94.8 133.7 94.8 133.6 94.8 133.4 94.6 133.2 94.4 133.1 94.3 133.1 94.2 133 94.2 133 94.2 132.7 93.9 132.7 93.5 132.9 93.2M88.2 101.9C88.1 101.9 87.9 101.9 87.8 101.9 87.8 101.9 87.8 102 87.8 102 88.1 102.2 88.5 102.5 88.8 102.7 88.9 102.7 89 102.8 89.1 102.9 89.6 103.2 90.1 103.5 90.6 103.8 92.6 104.7 94.2 105.1 95.8 105.2 95.9 105.2 96.1 105.2 96.2 105.3 96.4 105.3 96.5 105.4 96.6 105.6 96.7 105.7 96.7 105.9 96.6 106 96.5 106.3 96.3 106.5 96 106.5 95.8 106.5 95.5 106.5 95.3 106.5 95.2 106.5 95.1 106.5 95 106.5 95 106.5 94.9 106.5 94.9 106.5 95.3 106.8 95.7 107 96.1 107.1 96.2 107.1 96.4 107.1 96.5 107.2 96.9 107.3 97.3 107.4 97.8 107.3 97.8 107.3 97.8 107.3 97.9 107.3 98 107.2 98.3 107.3 98.4 107.4 98.6 107.6 98.7 107.9 98.7 108.1 98.7 108.2 98.6 108.6 98.1 108.7 97.2 108.8 96.2 109 95.3 109.2 95.5 109.3 95.7 109.4 95.9 109.5 96.2 109.6 96.5 109.7 96.7 109.9 96.8 109.9 96.9 110 97 110 97.1 110.1 97.2 110.1 97.3 110.2 97.7 110.3 98.2 110.5 98.7 110.4 99 110.4 99.2 110.3 99.5 110.2 99.6 110.2 99.7 110.1 99.8 110.1 99.9 110.1 100 110.1 100.2 110.2 100.4 110.2 100.6 110.4 100.6 110.6 100.7 110.8 100.6 111.1 100.4 111.3 100.3 111.3 100.2 111.4 100.1 111.5L100.1 111.5C99.9 111.6 99.7 111.7 99.6 111.8 99.2 112.1 98.8 112.3 98.4 112.5 98.5 112.6 98.6 112.6 98.8 112.6 99.6 112.8 100.4 112.9 101.3 113.1 101.4 113.1 101.5 113.1 101.6 113.1 101.8 113.1 101.9 113 102.1 113 102.2 113 102.4 113 102.5 112.9 102.5 112.9 102.6 112.9 102.6 112.9 102.6 112.9 102.7 112.9 102.7 112.9 102.8 112.9 102.9 112.9 103 112.9 103.3 113 103.5 113.2 103.5 113.6 103.6 114 103.2 114.1 103.1 114.2L101.3 115.2C101.4 115.2 101.5 115.2 101.6 115.2 102.1 115.4 102.6 115.5 103.1 115.6 103.7 115.7 104.4 115.6 105.1 115.6 105.2 115.6 105.4 115.6 105.5 115.6 105.6 115.6 105.8 115.5 105.9 115.5 106 115.5 106 115.4 106.1 115.4 106.2 115.3 106.4 115.3 106.5 115.3 106.8 115.3 107.1 115.4 107.2 115.7 107.3 115.9 107.3 116.3 106.8 116.7 106.4 117 106 117.2 105.5 117.5 105.6 117.5 105.6 117.5 105.6 117.5 106.3 117.6 107.1 117.6 107.9 117.5 108.1 117.5 108.4 117.5 108.6 117.4 109.4 117.3 110 117.1 110.5 116.8 110.6 116.7 110.8 116.6 110.9 116.6 111.2 116.6 111.4 116.7 111.5 116.9 111.8 117.3 111.7 117.7 111.3 117.9 111 118.2 110.7 118.4 110.4 118.6 110.3 118.7 110.1 118.8 109.9 118.9 109.9 119 109.9 119 109.8 119 110.4 119.1 111 119.1 111.6 119.1 111.8 119.1 112 119 112.2 119 112.6 118.9 113.1 118.7 113.6 118.5 114 118.4 114.3 118.3 114.7 118.2 114.7 118.2 114.8 118.2 114.9 118.1 115 118.1 115.2 118 115.4 118 115.6 118 115.7 118 115.9 118.1 115.9 118 115.9 118 115.9 118 116.1 117.7 116.2 117.5 116.4 117.2 116.4 117.1 116.5 117 116.6 116.8 116.9 116.4 117.1 116 117.4 115.6 117.8 115.1 118.3 114.6 118.7 114.2L118.8 114.2C118.8 114.1 118.9 114 119 114 118.8 113.9 118.6 113.9 118.4 113.9 118.3 113.9 118.2 114 118.1 114L118.1 114C117.6 114.2 117.1 114.4 116.7 114.6 116.5 114.6 116.4 114.6 116.4 114.6 115.8 114.7 115.7 114.2 115.7 114L115.7 114C115.5 114 115.3 114 115 114.1 114.5 114.1 113.9 114.1 113.3 114.1 112.1 114.2 110.9 113.9 109.7 113.4 108.3 112.7 107.1 112.1 106 111.4 105.9 111.4 105.9 111.4 105.9 111.4 105.9 111.4 105.8 111.4 105.7 111.3 105.5 111 105.4 110.8 105.4 110.4 105.5 110.3 105.6 110.1 105.9 110 105.8 110 105.7 109.9 105.6 109.9L105.4 109.8C104.5 109.4 103.6 109 102.8 108.4 102.6 108.3 102.4 108.2 102.1 108 102 107.9 101.8 107.8 101.6 107.7 101.5 107.6 101.4 107.5 101.3 107.4 101.2 107.1 101.1 106.9 101.2 106.7 101.3 106.5 101.5 106.3 101.8 106.3L101.6 106.1 101.6 105.9C101.7 105.6 101.9 105.4 102.2 105.4 102.3 105.4 102.4 105.4 102.5 105.5 103.1 105.7 103.7 105.9 104.3 106.2 104.5 106.3 104.7 106.6 104.7 106.9 104.7 107.4 104.2 107.5 104 107.5 104 107.5 104 107.5 104 107.5 105 108.2 106 108.6 107.1 108.8 107.5 108.9 107.9 109 108.2 109.1 108.4 109.1 108.5 109.2 108.6 109.2 109.1 109.4 109.3 109.7 109.2 110.3L109.2 110.4 108.1 111C108.2 111.1 108.4 111.2 108.7 111.3 109.6 111.7 110.5 112.1 111.3 112.4 112.1 112.7 113 112.8 114.2 112.7 114.3 112.7 114.4 112.7 114.5 112.7 114.7 112.7 115 112.6 115.2 112.6 115.5 112.5 115.8 112.5 116.1 112.5 116.2 112.4 116.3 112.4 116.4 112.4 116.5 112.4 116.5 112.4 116.6 112.4 116.9 112.4 117.1 112.2 117.4 112 117.4 112 117.5 111.9 117.5 111.9 117.9 111.6 118.3 111.4 118.8 111.1 118.9 111.1 119 111 119.2 110.9 119.2 110.9 119.3 110.9 119.3 110.8 119.1 110.7 118.9 110.6 118.8 110.5 118.7 110.5 118.7 110.5 118.7 110.5 118.6 110.5 118.5 110.4 118.4 110.3 118.3 110.1 118.2 109.9 118.2 109.7 118.2 109.4 118.5 109.2 118.8 109.2L118.9 109.2C118.9 109.2 118.9 109.2 119 109.1 119.3 109.1 119.7 109.1 120 109 120.4 108.9 120.8 108.8 121.1 108.6 121 108.6 120.8 108.5 120.7 108.5 120.2 108.3 119.7 108.2 119.2 108 118.7 107.7 118.3 107.3 117.8 107 117.7 106.9 117.6 106.8 117.5 106.7 117.2 106.5 117.1 106.2 117.3 105.8 117.4 105.6 117.5 105.5 117.8 105.4 117.8 105.4 117.9 105.4 118 105.4 118 105.4 118 105.4 118 105.4 118.2 105.4 118.4 105.4 118.5 105.4 119 105.4 119.4 105.4 119.8 105.4 119.9 105.4 120 105.4 120 105.4 120.9 105.3 121.7 105 122.5 104.6 123.6 104.1 124.6 103.5 125.5 102.8 125.7 102.6 125.8 102.5 126 102.3 125.9 102.3 125.8 102.3 125.7 102.2 124.9 102 124.2 101.7 123.6 101.1 123.4 101 123.2 100.9 123.1 100.8 122.9 100.7 122.8 100.6 122.7 100.5 122.4 100.3 122.3 99.9 122.5 99.6 122.6 99.6 122.8 99.3 123 99.3 123.1 99.3 123.2 99.3 123.3 99.4 123.8 99.6 124.3 99.6 124.8 99.6 125.3 99.6 125.8 99.4 126.5 99.2 127.2 99 127.8 98.6 128.5 98.1 128.7 98.1 128.8 98 129 97.9L129 97.8C129.7 97.4 130.5 96.9 131.3 96.5 131.8 96.3 132.4 96.1 133.2 96 133.5 96 133.7 96 134 96 134.2 96 134.5 96 134.7 96.1 135 96.2 135.2 96.6 135.1 96.9 135 97.1 134.9 97.3 134.7 97.3 134.6 97.3 134.5 97.3 134.4 97.3 134 97.2 133.7 97.2 133.3 97.2 132.5 97.3 131.8 97.6 131 98 130.6 98.3 130.2 98.5 129.8 98.8 129.4 99 129 99.3 128.6 99.5 127.6 100.1 126.6 100.5 125.7 100.7 126.3 100.9 126.8 101.1 127.3 101.2 127.3 101.2 127.4 101.2 127.4 101.2 127.4 101.2 127.5 101.1 127.6 101.1 127.6 101.1 127.6 101.1 127.6 101.1 128 101.1 128.3 101.3 128.4 101.6 128.6 102.1 128.2 102.4 128 102.5 127.8 102.6 127.5 102.8 127.3 103 127.2 103.1 127.1 103.1 127.1 103.2 126.8 103.3 126.6 103.5 126.3 103.7 125.7 104.1 125.2 104.6 124.6 105 124.3 105.2 123.9 105.3 123.6 105.5 123.4 105.5 123.2 105.6 123.1 105.7L123 105.8C122.2 106.1 121.5 106.5 120.6 106.6L120.5 106.6C120.3 106.7 120 106.7 119.8 106.7L119.8 106.7 119.8 106.7C120.5 107.1 121.3 107.5 122.1 107.6 122.2 107.6 122.3 107.6 122.4 107.6 122.5 107.6 122.5 107.6 122.5 107.6 122.6 107.6 122.6 107.6 122.6 107.6L122.7 107.6C123.2 107.6 123.4 107.8 123.5 108 123.7 108.5 123.3 108.8 123.2 108.9 123 109 122.9 109.1 122.7 109.2 122.6 109.4 122.4 109.5 122.2 109.6 122.1 109.7 121.9 109.8 121.7 109.9L121.8 110C122 110.3 122.2 110.5 122.1 110.8 122 111 121.8 111.2 121.5 111.3 121.3 111.4 121 111.5 120.8 111.6 120.3 111.8 119.8 112.1 119.3 112.3 119.2 112.3 119.1 112.4 119.1 112.4 118.9 112.5 118.8 112.6 118.6 112.6L121.8 113.1 121.9 113.2C122 113.5 122.1 113.8 122 114.1 121.8 114.4 121.4 114.4 121.2 114.4 120.6 114.5 120.1 114.8 119.6 115.2 118.9 115.7 118.4 116.2 118.1 116.9 118 117 117.9 117.1 117.9 117.2 117.8 117.3 117.8 117.3 117.7 117.4 117.3 118 117.1 118.6 116.8 119.3 116.8 119.4 116.7 119.5 116.7 119.6 116.7 119.6 116.7 119.6 116.7 119.6 117.6 119.1 118.5 119 119.4 118.9L119.5 118.9C119.7 118.9 119.8 118.9 120 118.9 120.5 118.8 121 118.8 121.5 118.8 121.8 118.8 122.1 118.7 122.4 118.7L122.4 118.7C122.5 118.7 122.5 118.7 122.5 118.7 123.1 118.7 123.4 119 123.4 119.3 123.4 119.6 123.2 120 122.6 120 122.2 120.1 121.9 120.3 121.6 120.5 120.1 121.8 118.9 123 118.1 124.3 118.1 124.3 118 124.4 118 124.4 117.9 124.5 117.9 124.6 117.8 124.7 118 124.6 118.1 124.5 118.3 124.4 118.9 124.1 119.6 123.9 120.2 123.7 120.3 123.7 120.5 123.7 120.6 123.6 121.5 123.4 122.4 123.2 123.2 123 123.4 123 123.5 123 123.6 123 123.9 123 124.1 123 124.4 123 124.5 123 124.6 123 124.7 123 125.1 122.9 125.4 123.2 125.4 123.6 125.4 123.9 125.2 124.2 124.8 124.3 124 124.5 123.1 124.9 122.4 125.6 121.4 126.5 120.4 127.6 119.9 128.9 119.9 128.9 120 128.8 120 128.8 121.4 128.1 122.6 127.7 123.9 127.6 124.4 127.5 124.8 127.5 125.2 127.5 125.4 127.6 125.6 127.6 125.8 127.5 125.9 127.5 126 127.5 126.2 127.5 126.4 127.5 126.8 127.6 127 128 127.1 128.4 126.9 128.6 126.8 128.8L126.8 128.8C126.7 128.9 126.6 128.9 126.6 129 126.3 129.3 126.1 129.6 125.9 130 125.4 130.9 124.9 131.9 124.5 132.9 124.4 133.1 124.3 133.3 124.2 133.6 124.1 133.6 124.1 133.7 124.1 133.8 124.1 133.8 124.1 133.9 124.1 133.9 124 134.6 123.8 135.3 123.7 136 123.7 136 123.7 136 123.7 136.1 124.7 135.5 125.9 135 127.5 134.7 128.2 134.5 128.9 134.4 129.6 134.3 129.9 134.3 130.2 134.2 130.5 134.2 130.5 134.2 130.5 134.2 130.5 134.2 130.8 134.2 131 134.2 131.1 134.4 131.3 134.6 131.4 134.8 131.3 135.1 131.3 135.4 131.2 135.7 131.2 135.9 131.2 136.1 131.1 136.3 131.1 136.5 130.9 137.4 130.8 138.6 131.2 139.7 131.4 139.5 131.5 139.4 131.6 139.3 132.6 138.1 133.8 137.4 135 136.9 135.1 136.8 135.2 136.8 135.3 136.8 135.5 136.8 136 136.8 136.1 137.5 136.1 137.9 136.2 138.3 136.2 138.7L136.2 138.9C136.2 139.6 136.4 140.3 136.7 140.9 136.7 140.9 136.7 140.8 136.8 140.8 137.7 139.7 138.8 138.9 140.1 138.1 140.4 138 140.5 137.9 140.7 137.9 141 137.9 141.3 138.1 141.5 138.4 141.7 138.7 141.9 139 142.1 139.3 142.3 139.5 142.4 139.7 142.6 139.9 142.7 140.1 142.9 140.3 143.1 140.5 143.2 140.6 143.2 140.6 143.2 140.6 143.2 140.6 143.2 140.5 143.2 140.5 143.3 140.1 143.3 139.7 143.4 139.3 143.4 139.1 143.4 139 143.5 138.8L143.5 138.7 143.5 138.7C143.9 138.3 144.4 138.3 144.8 138.7 145.2 139 145.6 139.3 146 139.6 146.2 139.8 146.4 139.9 146.6 140 146.6 140 146.6 139.9 146.5 139.8 146.1 138.5 146.9 137.1 148.2 136.6L148.3 136.6C148.4 136.5 148.6 136.5 148.6 136.4 148.9 136.2 149.1 136.1 149.5 136.1 149.6 136 149.7 136 149.8 136 150.1 136.1 150.4 136.1 150.6 136.3 150.7 136.5 150.7 136.7 150.7 137 150.7 137.1 150.7 137.2 150.7 137.3 150.6 137.5 150.6 137.7 150.7 137.8L150.7 138 150.7 138.1C150.5 138.3 150.6 138.4 150.7 138.7 150.7 138.8 150.7 138.8 150.8 138.9 150.9 138.8 150.9 138.8 151 138.7 151.2 138.6 151.4 138.5 151.5 138.4 151.9 138.2 152.2 138 152.6 137.8 152.9 137.6 153.2 137.6 153.5 137.5L153.5 137.5C153.6 137.5 153.7 137.4 153.8 137.4 154.2 137.4 154.3 137.6 154.4 137.7 154.7 138.1 154.7 138.5 154.5 138.8 154.2 139.2 154.2 139.7 154.2 140.2 154.2 140.3 154.2 140.4 154.2 140.5 154.3 140.5 154.4 140.4 154.5 140.3 154.6 140.3 154.7 140.2 154.8 140.1 155.8 139.5 156.9 138.9 158.2 138.6 158.2 138.6 158.3 138.5 158.4 138.5 158.8 138.5 159.1 138.6 159.3 139L159.4 139.1 159.3 139.3C159.3 139.3 159.3 139.3 159.3 139.4 159.2 139.5 159.2 139.6 159.1 139.7 158.9 140 158.8 140.3 158.9 140.7 158.9 140.8 158.9 140.9 158.9 140.9 159.5 140.5 160.3 140.1 161.2 139.8 161.2 139.8 161.2 139.8 161.2 139.8 161.2 139.6 161.2 139.5 161.2 139.4L161.2 139.3C161.2 139.1 161.2 138.9 161.1 138.8 160.9 138.5 160.7 138.1 160.4 137.8 159.7 137.1 158.9 136.5 158.1 135.9 157.6 135.6 157.1 135.3 156.6 134.9 155.9 134.5 155.2 134 154.5 133.5 154.2 133.3 154 133.1 153.7 132.8 152.8 132 151.9 131.4 150.8 130.6 150.4 130.4 150.1 130.2 149.8 130 149.2 129.6 148.6 129.2 148 128.9 147.3 128.5 146.6 128.1 145.8 127.7 145.4 127.5 145.1 127.3 144.7 127.2 144.8 127.7 144.4 127.9 144.2 128 143.9 128.1 143.7 128.1 143.4 128.2 143.2 128.2 143 128.2 142.9 128.2 142.8 128.2 142.6 128.2 142.5 128.2 142.2 128.2 142 128.2 141.7 128.2 141.3 128.2 141 128.2 140.6 128.3 140.4 128.3 140.1 128.3 139.9 128.4 139.2 128.5 138.4 128.6 137.4 128.7 137.3 128.7 137.3 128.7 137.2 128.7 136.5 128.8 135.8 128.6 135.1 128.1 134.3 127.5 134.3 126.6 134.4 126 134.5 124.9 134.9 123.9 135.5 122.8L135.6 122.6C135.9 122 136.3 121.3 136.6 120.7 136.9 120.3 137.2 119.8 137.5 119.4 137.6 119.2 137.8 119 138 118.7 138.3 118.3 138.6 117.9 138.9 117.4 138.8 117.4 138.8 117.4 138.7 117.4 138.2 117.3 138.3 116.7 138.3 116.6 138.3 116.5 138.3 116.5 138.3 116.5 138.4 116.3 138.4 116.1 138.5 115.9 138.2 115.9 138 116 137.7 116.2 137 116.5 136.4 116.9 135.8 117.3 135.5 117.4 135.3 117.6 135 117.7 135 117.7 135 117.7 135 117.8 135 117.8 134.9 117.8 134.9 117.9 134.8 117.9 134.8 117.9 134.8 117.9 134.7 117.9 134.6 118 134.4 118 134.3 118 134.1 118 134 117.9 133.7 117.7 133.7 117.1 133.9 116.8 133.9 116.7 134 116.7 134 116.6 134.1 116.5 134.1 116.5 134.2 116.4 134.2 116.3 134.3 116.2 134.3 116.1 134.5 115.8 134.8 115.4 135 115 135.1 114.6 135.4 114.3 135.7 114 135.9 113.8 136 113.7 136.1 113.5 136.2 113.4 136.3 113.3 136.4 113.2 136.3 113.2 136.2 113.2 136.2 113.2 135.6 113.3 135 113.3 134.4 113.5 133.2 113.7 132 114.2 130.5 114.9 130.5 114.9 130.5 114.9 130.5 114.9 130.3 115 130.2 115.1 130 115.1 129.9 115.1 129.7 115.1 129.5 114.9 129.2 114.5 129.3 114 129.6 113.7 130.1 113.2 130.4 112.7 130.8 112.2 131.2 111.7 131.6 111.2 132 110.7 132 110.7 131.9 110.7 131.9 110.7 131.4 110.7 131 110.7 130.6 110.7 130.3 110.7 130 110.8 129.8 110.9 129.1 111.1 128.4 111.3 127.7 111.6 127.4 111.7 127.1 111.7 126.8 111.8 126.8 111.9 126.7 111.9 126.5 111.9 126.3 111.9 126.1 111.8 126 111.6 125.7 111.2 125.9 110.9 126.1 110.8 126.2 110.6 126.3 110.5 126.4 110.4 126.6 110.2 126.7 110 126.9 109.8 127.5 109.2 128.2 108.6 128.8 108.1 129 107.9 129.2 107.7 129.4 107.5 129.3 107.5 129.1 107.5 129 107.5 128.2 107.8 127.4 108.1 126.5 108.4 126.5 108.4 126.5 108.4 126.5 108.4 126.4 108.4 126.3 108.4 126.1 108.5 125.6 108.5 125.5 108.2 125.4 108 125.3 107.6 125.4 107.3 125.8 107.2 126.1 107.1 126.4 106.9 126.8 106.8 127.4 106.7 128.1 106.5 128.9 106.3 129.2 106.2 129.5 106.2 129.8 106.1 129.8 106.1 129.9 106.1 130 106.1L130.2 106.1C130.8 106.1 131.4 106 132.1 106.1 132.9 106.1 133.7 106.2 134.5 106.2L134.8 106.3C135.8 106.4 136.7 106.5 137.5 106.6 138 106.6 138.5 106.7 138.9 106.8 139.2 106.8 139.4 106.8 139.6 106.8 140.8 107 142.1 107 143.4 106.9 144.1 106.8 144.9 106.6 145.6 106.4 145.8 106.3 146 106.3 146.2 106.2 147.2 106 148 105.5 148.8 105L149.2 104.7C149.9 104.3 150.6 103.8 151.3 103.4 151.7 103.2 152.1 102.9 152.7 102.7 152.8 102.6 153 102.5 153.2 102.4 154.1 102 155 101.6 156 101.4 156.8 101.3 157.4 100.9 158.1 100.6 158.3 100.4 158.5 100.3 158.8 100.2 159.6 99.7 160.6 99.5 161.8 99.4 162 99.4 162.2 99.4 162.4 99.3 163.6 99.3 164.8 99.4 166.2 99.6 166.6 99.7 167.1 99.7 167.5 99.7 167.7 99.7 167.9 99.7 168 99.7 168.1 99.7 168.1 99.7 168.2 99.7 168.5 99.7 168.9 99.7 169.2 99.9 169.3 100 169.6 100 169.7 100 169.8 100 169.8 100 169.8 100 170.9 99.9 171.9 100 172.7 100.1 174.1 100.3 175.5 100.5 176.9 100.3 177.2 100.3 177.5 100.3 177.8 100.3 178.1 100.3 178.3 100.3 178.5 100.3 178.6 100.3 178.7 100.3 178.8 100.2 178.8 100.1 178.7 100 178.7 100 178.3 99.5 178.2 99 178.1 98.5 178.1 98.4 178 98.2 178 98 177.9 97.7 177.9 97.5 177.8 97.3 177.8 97.2 177.8 97.1 177.8 97 177.8 97 177.8 96.9 177.8 96.8 177.8 96.8 164.7 97.4 158.4 92.2 158.2 92 158 91.8 157.8 91.7L157.8 91.7C157.3 91.2 156.8 90.8 156.4 90.4 156.1 90 155.8 89.7 155.4 89.5 155.3 89.4 155.1 89.3 155 89.1 154.5 88.7 153.9 88.4 153.2 88.1 151.5 87.1 150.1 86.8 148.4 86.7 147.8 86.6 147.3 86.5 146.7 86.5 146.3 86.4 145.9 86.4 145.5 86.4 145.2 86.4 145 86.4 144.7 86.4 144.4 86.4 144 86.4 143.6 86.3 137.4 85.7 133.9 85.5 129.8 83.4 129.7 83.3 129.7 83.3 129.6 83.3 129.7 84.1 130.1 84.8 130.8 85.4 130.9 85.5 131.1 85.6 131.2 85.7 131.4 85.9 131.5 86.3 131.3 86.5 131.2 86.7 131 86.8 130.8 86.8 130.7 86.8 130.6 86.8 130.5 86.8 130.4 86.8 130.3 86.8 130.2 86.7 129.9 86.6 129.5 86.6 129.2 86.5 129.1 86.5 129 86.4 128.9 86.4 130 86.6 131 87.1 132.2 87.7 132.8 88.1 133.2 88.6 133.4 89.3 133.4 89.3 133.4 89.3 133.4 89.3 133.4 89.5 133.5 89.6 133.4 89.8 133.3 89.9 133.3 90 133.1 90 133.1 90 133.1 90 133 90 132.9 90 132.7 90 132.6 89.9 132.6 89.9 132.5 89.9 132.5 89.9 132.4 89.8 132.3 89.7 132.3 89.6 132.1 89 131.5 88.7 130.9 88.4 130.9 88.4 130.8 88.4 130.8 88.3 129.6 87.7 128.2 87.5 126.8 87.6 126.6 87.6 126.4 87.6 126.2 87.7 125.2 87.8 124.1 88.1 123.1 88.3L122.7 88.4C121.9 88.6 121.2 88.7 120.6 88.7 120.1 88.8 119.6 88.8 119.1 88.8 118.6 88.7 118.1 88.7 117.6 88.6 117.4 88.6 117.2 88.5 117 88.4 116.8 88.3 116.6 88.1 116.6 87.9 116.5 87.8 116.6 87.6 116.6 87.4 116.8 87.2 117 87.1 117.2 87.1 117.3 87.1 117.4 87.1 117.5 87.1 117.6 87.1 117.7 87.2 117.8 87.2 118.1 87.3 118.3 87.4 118.5 87.4 119.2 87.5 119.8 87.5 120.5 87.4 120.7 87.4 121 87.4 121.2 87.3 121.5 87.3 121.9 87.2 122.2 87.1 122.5 87.1 122.7 87 123 87 124.4 87.1 125.5 87 124.9 86.5 123.7 85.4 118.7 83 114.9 84.6 111 86.1 102.8 87.9 102.8 87.9 103.6 88.5 104.4 89.1 105.2 89.7 105.3 89.7 105.4 89.8 105.6 89.9 105.9 90.1 106.2 90.4 106.5 90.6 107.7 91.3 108.7 91.8 109.7 92.3 109.9 92.5 110.3 92.5 110.6 92.5 111.8 92.5 113 92.9 114 93.2 114.4 93.4 114.8 93.5 115.2 93.7 115.3 93.7 115.3 93.7 115.4 93.7L115.4 93.6C115.4 93.2 115.3 92.9 115.3 92.6 115.3 92.5 115.3 92.5 115.3 92.5 115.3 92.4 115.3 92.3 115.3 92.2 115.3 91.8 115.6 91.5 115.9 91.5 116.1 91.5 116.2 91.5 116.4 91.6 116.6 91.8 116.8 92 117 92.1 117.2 92.3 117.4 92.5 117.6 92.6 118.3 93.1 119 93.6 119.7 94L119.8 94.1C119.8 94.1 119.8 94.1 119.9 94.2 120.5 94.6 120.2 94.7 120.4 93.2 120.7 91.7 121.7 91.9 121.9 92.6 122.2 93.3 123.7 94.9 123.7 94.9 123.7 94.9 123.7 94.5 123.7 93.8 123.7 93 123.2 91.1 124.6 92.5 125 93 125.4 93.4 125.9 93.7 126.2 93.9 126.4 94.1 126.7 94.2 126.8 94.3 126.9 94.3 127.1 94.4 127.1 94.4 127.2 94.5 127.3 94.5 127.8 94.8 128.1 94.9 128.1 94.9 128.1 94.9 128.1 94.9 128.1 94.8 128.2 94.9 128.3 94.9 128.4 94.9 128.5 94.9 128.6 95 128.7 95 128.9 95 129 95.1 129.1 95.1 129.1 95.1 129.1 95.1 129.2 95.2L129.8 95.4 129.2 95.7C129.1 95.7 128.9 95.8 128.7 95.8 128.2 95.8 127.4 95.7 126.6 95.4 126 95.2 125.6 94.9 125.1 94.6 125 94.5 124.9 94.4 124.8 94.3 124.7 94.5 124.8 94.7 124.8 94.9 125 95.1 125.1 95.4 125.3 95.6 125.3 95.7 125.4 95.8 125.5 95.9 125.5 95.9 125.5 96 125.5 96 125.6 96 125.6 96.1 125.7 96.2 125.8 96.5 125.8 96.8 125.6 97 125.4 97.1 125.3 97.2 125.1 97.2 125 97.2 124.8 97.2 124.7 97.1 124.6 97.1 124.6 97 124.5 97 123.6 96.4 122.6 95.8 122 94.9 121.8 94.7 121.6 94.5 121.4 94.3 121.4 94.3 121.4 94.3 121.4 94.3 121.3 94.5 121.4 94.8 121.5 95 121.5 95.1 121.5 95.1 121.5 95.1 121.6 95.3 121.7 95.7 121.4 96 121.3 96.1 121.1 96.2 121 96.2 120.7 96.2 120.5 96.1 120.3 96 119.1 95.3 118 94.5 117 93.9 116.9 93.8 116.9 93.8 116.9 93.8 116.9 93.8 116.9 93.9 116.9 93.9 116.9 94 116.9 94 117 94.1 117 94.2 117.1 94.3 117.1 94.4 117.2 94.5 117.5 94.9 117.1 95.3 116.9 95.4 116.7 95.5 116.5 95.5 116.4 95.5 116.3 95.5 116.2 95.5 115.5 95.2 114.9 95 114.3 94.8 114.1 94.7 113.9 94.6 113.7 94.6 113.2 94.4 112.7 94.2 112.1 94.1 111.4 93.9 110.7 93.9 109.9 93.9 109.6 93.9 109.3 93.9 109 93.9 108.1 94 107.1 94.2 106.2 94.4L106 94.4C105 94.6 104 95 103.1 95.4 102.6 95.6 102.1 95.9 101.6 96.1 101.3 96.3 101 96.5 100.7 96.6 100.5 96.7 100.3 96.8 100.1 96.9 99.9 97 99.7 97 99.5 97.1 99.1 97.3 98.8 97.5 98.5 97.7 98 97.9 97.4 98.2 96.9 98.4 96.3 98.7 95.7 99 95.2 99.3 94 99.9 92.8 100.5 91.5 100.9 91.2 101 90.9 101.1 90.6 101.2 90.2 101.4 89.8 101.5 89.4 101.6 89 101.7 88.6 101.8 88.2 101.9"/><path d="M179.7 125.6C179.5 124.9 179 124.1 178 123.5 178 123.5 177.4 123.3 177.6 123.8 177.7 124.2 177.6 125.3 177.3 126.1 178.1 126 178.9 125.8 179.7 125.6"/><path d="M175.3 126.3C175.2 125.6 174.9 124.3 173.4 123.5 173.4 123.5 172.9 123.3 173 123.8 173.2 124.2 173 125.6 172.6 126.4 173.5 126.4 174.4 126.4 175.3 126.3"/><path d="M172.1 158.4C170.8 160.3 169.7 162.4 169.5 164.8 169.3 166.3 169.9 167.5 170.9 168 172.8 169 174.6 168.1 175.3 166.1 175.6 165 175.4 164.1 175 163.3 174.1 161.6 173.1 160.1 172.1 158.4"/><path d="M170.7 129C170.8 129.1 170.9 129.1 171 129 171.6 129 172.3 129 173.1 128.9 173.6 128.9 174.2 128.8 174.7 128.8 175.1 128.7 175.6 128.7 176.1 128.6 177.3 128.5 178.4 128.3 179.7 127.9L179.7 127.9C179.8 127.9 179.8 127.9 179.9 127.8 180.1 127.8 180.3 127.7 180.5 127.6 181.1 127.4 181.6 127.2 182 126.8 182.1 126.6 182.2 126.5 182.2 126.3 182.2 126.3 182.2 126.2 182.2 126.2 182.2 126.2 182.2 126.2 182.1 126.2 182.1 126.2 182 126.2 181.9 126.2 181.7 126.2 181.6 126.2 181.4 126.2 181.4 126.2 181.4 126.2 181.4 126.2 180.6 126.4 179.8 126.5 179.1 126.7L179.1 126.7C176 127.4 172 127.3 169 127 169.5 127.6 170 128.1 170.5 128.8 170.5 128.9 170.6 129 170.7 129"/><path d="M192.6 116.1L194.4 120.3 143.3 120.3C142.6 121.1 142.4 122.1 142.3 123L194.3 123 192.6 127.1 204.7 123 204.8 123 204.8 122.9 208.8 121.6 192.6 116.1Z"/><path d="M193 161.5C192.3 161.7 191.5 162.1 190.8 162.3 190.5 162.3 190.2 162.2 189.9 162.1L189.4 161.8C189.4 161.8 189.5 161.7 189.5 161.6 191.2 161.1 192.9 160.5 194.6 159.9 193.1 157.8 191.3 158.7 189.5 159.3 188.8 159.6 188.1 159.9 187.3 160.1 187 160.1 186.7 160 186.4 159.9L186 159.6C186 159.6 186 159.5 186 159.4 187.7 158.9 189.4 158.3 191.1 157.8 190 156.4 189.1 156.1 187.5 156.7 186.3 157.1 185.1 157.6 183.8 157.9 183.6 158 183.3 157.9 183.1 157.8L182.5 157.5C182.5 157.4 182.5 157.3 182.5 157.3 184.2 156.7 185.9 156.2 187.8 155.5 187.3 155.2 187 154.9 186.6 154.6 186.6 154.9 186.5 155.1 186.5 155.3 185.9 155.3 185.2 155.2 185.6 154 183.8 154.6 182.3 155.1 180.7 155.6 180.3 155.7 179.7 155.6 179.3 155.4L171.5 150.2C170.8 150.9 170.3 151.6 169.6 152.5L178.3 158C178.9 158.8 179.1 159.7 179.1 160.8 179.1 161.2 179.2 161.5 179.2 161.9 179 163.7 180.1 164.5 181.8 165.1 181.5 163.3 181.3 161.5 181.1 159.7L182 160.3C182.1 160.5 182.2 160.8 182.3 161.1 182.5 162.5 182.4 164 182.9 165.3 183.2 166.2 184.2 166.8 184.9 167.5 185 167.4 185.1 167.3 185.2 167.2 185 165.5 184.8 163.7 184.5 161.9L185.4 162.5C185.6 162.7 185.7 162.9 185.7 163.1 186 164.5 186 166 186.2 167.4 186.3 167.9 186.9 168.4 187.4 169.2 187.6 168.5 187.7 168.3 187.8 167.8 188.1 168.5 188.3 169.1 188.5 169.6 188.5 169.6 188.6 169.5 188.7 169.5 188.4 167.7 188.2 165.9 188 164.1L188.9 164.7C189 164.9 189.1 165.1 189.2 165.4 189.4 166.8 189.3 168.3 189.8 169.7 190.1 170.6 191.1 171.1 191.9 171.9 192 171.8 192 171.7 192.1 171.6 191.9 169.9 191.7 168.1 191.5 166.3L191.6 166.4 191.6 166.2C192.2 166.5 192.8 166.8 193.2 166.7 193.7 166.5 194 165.7 194.5 165.1 193.9 164.7 193.4 164.4 192.7 163.9 194.6 163.3 196.3 162.7 198 162.1 196.5 160 194.8 160.9 193 161.5"/><path d="M175.1 139L175.1 139 175.1 139C175.2 139 175.3 139 175.4 139 176.2 138.9 177 138.8 177.7 138.5 178.3 138.3 178.8 137.9 179.1 137.3 179.4 136.8 179.7 136.4 179.7 135.9 179.7 135.7 179.8 135.4 179.9 135.1 180 134.8 180 134.6 180.1 134.3 180.1 133.7 180.1 133 180.1 132.4 180.1 132.2 180.1 132.1 180.1 132 180.1 131.8 180.1 131.6 180.1 131.5 180.2 130.7 180.2 129.9 180.3 129.1 178.3 129.7 176.2 130 174 130.2 173.2 130.3 172.4 130.3 171.6 130.3 173 132.5 173.9 134.7 174.4 136.9 174.7 137.5 175 138 175 138.7 175 138.8 175 138.9 175.1 139"/><path d="M170.9 126.4C170.9 125.7 170.6 124.3 169.1 123.5 169.1 123.5 168.5 123.3 168.7 123.8 168.8 124.2 168.7 125.4 168.3 126.2 169.1 126.3 170 126.3 170.9 126.4"/><path d="M56.7 81.2L56.8 81.3 64.8 91.3 65.6 86.8 87 100.3C88.2 100.1 89.3 99.7 90.4 99.3L67 84.5 70.7 82 54.1 77.9 56.7 81.2 56.7 81.2Z"/><path d="M80.5 161.1C80.1 161.7 79.6 162.3 79.1 163 78.1 164.8 77.2 166.6 77.5 168.8 77.6 169.8 78.1 170.6 79.2 170.9 80.5 171.2 81.7 171.2 82.7 170 83.6 168.8 83.7 167.5 83 166.1 82.2 164.4 81.4 162.8 80.5 161.1"/><path d="M79.8 153C78.9 152.9 78.1 152.6 77.5 152.2 77.2 152 77.2 151.7 77.4 151.4L65.6 158.8 64.8 154.4 56.8 164.4 56.7 164.4 56.7 164.5 54.1 167.7 70.7 163.7 67 161.1 79.8 153Z"/><path d="M134.5 156.5C134.4 156.7 134.3 156.9 134.2 157.1 133.9 157.5 133.5 157.9 133.3 158.4 133 158.9 132.8 159.5 132.6 160.2 132.5 160.4 132.5 160.7 132.5 161 132.4 161.2 132.4 161.5 132.4 161.7 132.3 161.9 132.1 162.1 131.9 162.2 131.8 162.3 131.8 162.3 131.7 162.3 131.4 162.3 131.2 162.2 131.1 161.9L131 161.8C130.9 161.5 130.8 161.3 130.8 161 130.6 159.9 130.4 158.9 130.2 158.1 130.1 157.6 130.1 157.2 130.1 156.7 130.1 156.5 130 156.3 130 156.1 130 155.9 130 155.8 130 155.6 130 155.2 129.9 154.8 129.9 154.4 129.9 154.4 129.9 154.4 129.9 154.3 128.3 155.5 127.3 156.6 126.4 157.7 126.3 157.8 126.2 157.9 126.1 158 126 158.1 125.9 158.2 125.8 158.4 125.6 158.6 125.5 158.8 125.4 159.1 125.1 159.6 124.9 160.1 124.5 160.9 124.5 161 124.5 161.1 124.4 161.3 124.4 161.5 124.3 161.9 123.8 162 123.5 162 123.2 161.8 123 161.4 122.9 161.1 122.8 160.7 122.6 160.4 122.5 160.1 122.3 159.7 122.2 159.4 122.1 159.1 122 158.9 121.9 158.6 121.8 158.3 121.6 157.9 121.5 157.6 121.2 156.8 121.1 155.9 121.2 155.3 121.2 155.1 121.2 154.9 121.2 154.7 121.2 154.1 121.3 153.5 121.1 152.9 121.1 152.8 121.1 152.8 121.1 152.8L120.9 152.9C119.8 153.4 118.7 154 117.8 154.8 117.5 155.1 117.1 155.5 116.8 155.8 116.6 156 116.4 156.2 116.2 156.4 115.8 156.8 115.5 157.3 115.2 157.8 115.1 158 115 158.2 114.8 158.4 114.8 158.5 114.8 158.5 114.8 158.6 114.8 158.7 114.8 158.7 114.8 158.8 114.7 159.1 114.4 159.4 114.1 159.4 114 159.4 114 159.4 114 159.4 113.7 159.5 113.5 159.2 113.4 159 113.4 159 113.4 159 113.4 159 113 158.4 112.9 157.8 112.8 157.3 112.7 157 112.7 156.8 112.6 156.5 112.5 155.6 112.3 154.7 112.2 153.8 111.9 152.4 111.9 151.1 112.2 149.9 112.3 149.5 112.3 149.2 112.4 148.8 112.4 148.8 112.4 148.8 112.4 148.8 112 148.8 111.7 149 111.3 149.3 110.7 149.6 110.1 150.1 109.5 150.5 109.4 150.6 109.3 150.6 109.2 150.7 108.7 151 108.5 151.5 108.2 152L108.2 152.1C108 152.4 108 152.6 107.9 152.9 107.8 153 107.8 153.1 107.7 153.2 107.7 153.2 107.7 153.3 107.7 153.3 107.7 153.3 107.7 153.4 107.6 153.5 107.5 153.7 107.3 153.9 107.1 153.9 107 153.9 106.9 153.9 106.8 153.8 106.6 153.8 106.4 153.5 106.3 153.3 106.2 153 106.2 152.8 106.2 152.5 106.2 152.4 106.1 152.3 106.1 152.1 106.1 152 106.1 151.9 106.1 151.9 106 151.4 105.9 151 105.8 150.5 105.6 149.9 105.6 149.3 105.7 148.6 105.8 147.6 106 146.4 106.2 144.9 106.2 144.7 106.4 144.4 106.5 144.2 106.5 144.2 106.5 144.1 106.6 144 106.6 143.9 106.7 143.8 106.7 143.6 106.6 143.7 106.4 143.7 106.2 143.8 105.5 143.9 104.8 144 104.2 144.1 104 144.1 103.7 144.1 103.5 144.1 103.2 144.2 102.8 144.2 102.4 144.3 102 144.3 101.6 144.3 101.2 144.3 100.9 144.3 100.6 144.3 100.2 144.3 98.8 144.3 97.4 144.3 95.9 143.9 95.8 143.8 95.6 143.8 95.4 143.8 95.2 143.8 95.1 143.8 95 143.8 94.6 143.7 94.3 143.5 94.3 143.1 94.3 142.5 94.8 142.4 95 142.3 95.2 142.3 95.5 142.2 95.7 142.1 96.8 141.6 97.7 141.2 98.5 140.9 99.6 140.3 100.5 139.6 101.6 138.3 101.8 138.1 101.9 137.9 102.1 137.7 102.3 137.5 102.4 137.3 102.6 137.1 103.2 136.5 103.5 135.8 103.6 135.1 103.6 135 103.6 135 103.6 134.9 103.5 134.9 103.4 134.9 103.4 134.9L103.4 134.9C103.1 134.9 102.9 135 102.6 135 102.5 135 102.4 135 102.3 135 101.7 135.1 101.3 135.1 100.8 135.2 99.6 135.5 98.3 135.9 97.2 136.5 97.1 136.5 97 136.6 96.9 136.6 96 137.1 95.1 137.6 94.5 138.5 94.4 138.7 94.3 138.9 94.2 139.1 94.1 139.3 93.9 139.6 93.5 139.6 93.5 139.6 93.4 139.6 93.4 139.6 93 139.6 92.8 139.1 92.8 138.7 92.8 138.5 92.9 138.3 92.9 138.1 93 137.9 93 137.6 93.1 137.3 93.2 136.7 93.3 136 93.6 135.4 94.2 133.9 94.8 132.6 95.6 131.4 95.7 131.3 95.7 131.2 95.8 131.1 96.1 130.6 96.5 130.1 96.9 129.6 96.8 129.6 96.6 129.7 96.5 129.7 95.7 129.9 94.9 130.1 94.1 130.1 93.6 130.2 93.1 130.2 92.6 130.1 91.6 130.1 90.6 129.9 89.8 129.6 89.4 129.4 89 129.3 88.5 129.1 88.3 129.1 88.1 129 88 128.9 87.9 128.9 87.9 128.9 87.9 128.9 87.8 128.9 87.8 128.9 87.8 128.9 87.4 128.7 87.2 128.4 87.3 128 87.4 127.5 87.8 127.5 88 127.4 88 127.4 88 127.4 88 127.4 89.1 127.4 90 127 90.9 126.5 91.5 126.1 92 125.6 92.5 125.2 92.7 125 92.8 124.9 93 124.7 93.1 124.7 93.1 124.7 93.1 124.6 92.9 124.7 92.6 124.7 92.4 124.7 91.4 124.8 90.3 124.8 89.3 124.5 88.5 124.4 87.7 124.1 87 123.8 86.5 123.5 86 123.3 85.4 123 85.2 122.9 85 122.8 84.8 122.7 84.7 122.7 84.7 122.7 84.7 122.7 84.6 122.7 84.5 122.6 84.4 122.6 84.1 122.4 84 122.1 84.1 121.7 84.2 121.4 84.4 121.3 84.7 121.2 84.8 121.2 84.8 121.2 84.9 121.2 85.2 121.3 85.4 121.3 85.7 121.2 86.7 121.1 87.7 120.8 88.9 120L88.9 120 89 120C89.4 120 89.6 119.7 89.9 119.5 90 119.3 90.2 119.1 90.5 118.9L90.5 118.9C91.1 118.6 91.6 118.3 92 117.8 92 117.8 92.1 117.7 92.1 117.7 91.8 117.6 91.5 117.6 91.2 117.6 91 117.6 90.8 117.6 90.6 117.5 90.1 117.5 89.5 117.3 88.8 117 88.7 116.9 88.6 116.9 88.4 116.9 88.1 116.9 87.8 117 87.5 117 86.5 117.2 85.7 117.5 85 117.8 84.9 117.9 84.8 117.9 84.7 118L84.6 118C83.7 118.5 82.8 119.1 81.9 119.7 80.5 120.5 79.1 121.2 77.4 121.9 76.9 122.1 76.4 122.3 75.9 122.4 75.4 122.6 74.8 122.7 74.3 122.8 74.1 122.8 73.8 122.8 73.5 122.9 73.1 123 72.6 123 72.1 123.1 71.7 123.1 71.3 123.1 70.9 123.1 71 123.1 71 123.2 71.1 123.2 71.5 123.6 72 124 72.4 124.3L72.4 124.3C72.4 124.3 72.6 124.5 72.9 124.7 73.2 124.9 73.5 125 73.8 125.2 74 125.3 74.1 125.3 74.2 125.4 75.1 125.7 76 126.1 77 126.3 77.2 126.4 77.5 126.4 77.8 126.3 78 126.4 78.1 126.7 78.1 126.9 78.2 127.5 77.7 127.6 77.5 127.7 77.1 127.8 76.7 127.9 76.3 128.1 75.7 128.2 75.1 128.4 74.5 128.4 74 128.5 73.5 128.5 72.9 128.4 72.3 128.4 71.7 128.3 71.2 128.2 71 128.2 70.8 128.2 70.6 128.2 70.7 128.3 70.9 128.5 71.1 128.6 71.5 128.9 72 129.1 72.5 129.4 72.7 129.5 72.9 129.6 73.1 129.8 73.2 129.8 73.2 129.8 73.2 129.8 73.4 129.9 73.5 130 73.6 130.1 74.4 130.8 75.3 131.1 76.2 131.4 76.8 131.6 77.6 131.9 78.5 131.8 78.6 131.8 78.7 131.8 78.8 131.8 78.8 131.8 78.8 131.8 78.9 131.8 79.2 131.9 79.5 132.1 79.6 132.4 79.7 132.8 79.5 133.1 79.2 133.3 78.5 133.6 77.9 134.1 77.3 134.7 77.2 134.8 77 134.9 76.9 135.1 76.7 135.2 76.5 135.3 76.3 135.4 76.1 135.5 75.9 135.6 75.8 135.6 75 136 74.1 136.3 73.2 136.5 74 136.8 74.8 137 75.5 137.3 75.7 137.3 75.9 137.4 76.1 137.4 76.2 137.4 76.3 137.4 76.4 137.4 76.7 137.4 76.9 137.5 77.1 137.5 77.6 137.6 78.2 137.7 78.7 137.7 79.5 137.8 80.3 137.8 80.9 137.7 81.1 137.7 81.4 137.7 81.6 137.6 82 137.6 82.4 137.4 82.8 137.2 82.9 137.2 83 137.2 83.1 137.1 83.2 137.1 83.4 137 83.5 137 83.8 137 84 137.1 84.1 137.4 84.4 137.7 84.3 138.2 83.8 138.4 83 138.9 82.3 139.6 81.7 140.2 81 140.9 80.2 141.4 79.5 141.8 78.9 142.2 78.2 142.5 77.6 142.8L77.5 142.9C77.4 142.9 77.4 142.9 77.3 143 77.3 143 77.3 143 77.2 143 77.3 143 77.3 143 77.3 143 77.8 143.2 78.3 143.4 78.8 143.5L78.9 143.5C80.2 143.8 81.6 144.1 82.9 144.2 83.7 144.3 84.6 144.3 85.4 144.2 85.6 144.2 85.8 144.2 86 144.2 86.1 144.2 86.3 144.1 86.5 144 86.5 144 86.6 144 86.7 143.9 86.8 143.9 86.9 143.9 86.9 143.9 87.1 143.9 87.4 143.9 87.6 144.2 87.7 144.4 87.9 144.8 87.4 145.2 87.3 145.3 87.2 145.4 87.1 145.5 86.8 145.8 86.6 146 86.4 146.2L86.3 146.3C85.7 147 85.1 147.7 84.5 148.5 84 149.2 83.4 149.7 82.5 150.3 81.9 150.7 81.2 151.1 80.6 151.5 80.4 151.6 80.2 151.8 80 151.9 80.2 151.9 80.4 152 80.6 152.1 81.6 152.4 82.5 152.6 83.5 152.8 83.9 152.9 84.3 152.9 84.7 153 84.9 153 85.1 153 85.3 153 85.4 153 85.5 153 85.6 153 85.7 153 85.8 153 86 153 86.2 153 86.5 153 86.8 153 87.7 152.9 88.7 152.6 89.5 152.3 90.1 152.1 90.8 151.8 91.4 151.3 91.5 151.2 91.6 151.2 91.8 151.2 92 151.1 92.2 151.2 92.3 151.3 92.5 151.4 92.6 151.7 92.6 151.9 92.6 152.1 92.5 152.3 92.3 152.5 92.2 152.6 92 152.7 91.8 152.9 91.6 153.1 91.4 153.3 91.1 153.5 89.9 154.9 89.1 156.1 88.6 157.4 88.4 158 88.1 158.6 87.9 159.2L87.8 159.4C87.4 160.2 87.2 161 87.1 161.8 87.2 161.8 87.2 161.8 87.2 161.7 87.3 161.7 87.4 161.6 87.4 161.6 87.5 161.6 87.5 161.5 87.5 161.5 87.6 161.4 87.8 161.3 87.9 161.3 88.2 161.2 88.6 161.1 88.9 160.9 89.3 160.8 89.8 160.6 90.3 160.5 90.6 160.4 91 160.3 91.3 160.1 91.6 160 91.9 159.9 92.2 159.8 93.3 159.5 94.3 159.2 95.3 159 95.5 159 95.6 159 95.8 159 96 159 96.2 159 96.5 159 96.7 158.9 96.9 158.9 97.1 158.9L97.2 158.9C97.4 158.9 97.6 158.9 97.8 158.9 98 158.9 98.1 158.9 98.3 158.9 98.5 158.9 98.6 158.9 98.8 158.8 98.8 158.8 98.9 158.8 98.9 158.8 99.3 158.7 99.5 159 99.6 159.2 99.8 159.4 99.7 159.8 99.6 160 99.5 160.2 99.3 160.3 99.2 160.4L99.1 160.4C98.7 160.7 98.4 161 98.2 161.4 97.6 162.5 97.2 163.7 96.8 164.8 96.7 164.9 96.7 165.1 96.6 165.2 96.5 165.6 96.4 166 96.3 166.5 96.2 167.5 96.1 168.5 96 169.6 95.9 170 96 170.3 96.1 170.6 96.6 169.9 97.3 169.4 97.9 168.8 98.2 168.6 98.5 168.4 98.7 168.2 98.8 168.2 98.9 168.1 98.9 168 99.4 167.6 99.9 167.2 100.5 167 100.9 166.8 101.4 166.6 101.8 166.4 102.1 166.3 102.3 166.2 102.6 166.1 103 165.9 103.5 165.8 103.9 165.6 104.5 165.4 105 165.2 105.5 164.9 105.6 164.9 105.7 164.9 105.8 164.9 105.9 164.9 106.1 164.9 106.3 165.1 106.3 165.1 106.3 165.1 106.4 165.1 106.4 165.1 106.5 165.1 106.6 165.1L106.8 165.1 106.8 165.4C106.8 165.5 106.8 165.6 106.8 165.8 106.7 166.1 106.7 166.3 106.7 166.6 106.6 167 106.6 167.4 106.5 167.7 106.4 168.1 106.4 168.5 106.3 168.9 106.2 170 106.3 171.1 106.4 172.4 106.4 172.9 106.5 173.6 106.7 174.2 107.1 173.6 107.6 173.1 108.3 172.5 108.4 172.4 108.6 172.2 108.7 172.1 109.2 171.6 109.7 171.2 110.4 170.8 110.7 170.7 110.9 170.5 111.2 170.3 111.4 170.1 111.5 170 111.7 169.9 111.9 169.7 112.1 169.6 112.4 169.5 112.6 169.5 112.8 169.4 113.1 169.3 113.3 169.2 113.6 169.1 113.8 169 113.8 169 113.9 168.9 114 168.9 114 168.9 114 168.8 114.1 168.8 114.2 168.7 114.4 168.6 114.5 168.6 114.7 168.6 114.9 168.6 115.1 168.8 115.3 168.9 115.5 169.1 115.5 169.6 115.4 170.2 115.3 170.8 115.2 171.3 115.2 171.8 115.1 172.3 115 172.8 114.9 173.5 114.9 174.1 115.1 174.7 115.3 175.3 115.5 175.8 115.7 176.4 115.8 176.7 115.9 177.1 116 177.4 116.2 177.8 116.3 178.2 116.4 178.6 116.5 178.8 116.5 178.9 116.6 179.1 116.9 177.2 117.9 175.6 119 174.2 119.2 173.9 119.4 173.6 119.6 173.3 119.8 173 120 172.9 120.2 172.9 120.4 172.9 120.6 172.9 120.9 173.3 121.1 173.5 121.3 173.8 121.5 174.1 121.8 174.9 122.1 175.6 122.4 176.1 122.9 177.3 123.4 178.2 124.1 179L124.2 179.1C124.9 179.9 125.6 180.6 126.4 181.3 126.4 181.3 126.5 181.4 126.5 181.4 126.5 181.3 126.5 181.3 126.5 181.3 126.5 181 126.5 180.8 126.5 180.6 126.4 180.4 126.4 180.1 126.4 179.8 126.3 179.3 126.3 178.8 126.3 178.2 126.3 178 126.3 177.7 126.3 177.4 126.3 177.3 126.2 177.2 126.2 177.2 126.2 176.8 126.1 176.4 126.4 176 126.4 176 126.4 175.8 126.4 175.7 126.4 175.7 126.4 175.6 126.4 175.6 126.4 175.1 126.7 174.8 127.1 174.7 127.2 174.7 127.3 174.7 127.4 174.8 127.8 174.9 128 175.1 128.2 175.4L128.3 175.5C128.7 176.2 129.2 176.9 129.8 177.5 130.5 178.5 131.6 179.1 132.5 179.5 132.5 179.4 132.4 179.3 132.4 179.2 131.5 177 131.1 174.7 131.2 172.4 131.2 171.9 131.2 171.4 131.2 170.9 131.2 170.6 131.2 170.3 131.2 170 131.3 169.7 131.3 169.3 131.3 169.1L131.4 169C131.6 167.7 131.9 166.5 132.2 165.2 132.3 164.6 132.5 163.9 132.7 163.4 132.8 163.1 132.9 162.8 133.1 162.5L133.2 162.4C133.2 162.2 133.3 162.1 133.4 161.9 133.7 161.3 134.1 160.6 134.4 160 134.7 159.6 135 159.2 135.5 158.9L135.7 158.8C135.7 158.2 135.8 157.6 135.8 157 135.8 156.6 135.9 156.3 136 155.9 136 155.9 136 155.8 136 155.8 136.1 155.3 136.3 154.9 136.4 154.4 136.4 154.4 136.4 154.4 136.4 154.3 135.6 155 135.1 155.8 134.5 156.5"/><path d="M172.6 137.3C172.1 135.4 171.3 133.6 170.3 131.9 170.4 132 170.4 132 170.4 132 167.9 127.9 164.5 125.3 163.9 124.9 161.8 124 161.1 123.6 157.3 124.5 163.2 127.5 166.9 131.8 168.4 137.1 170.1 143.6 166.7 147.6 163.7 151.1 162.1 153 160.5 154.9 159.9 157 159.8 157.3 159.5 157.5 159.2 157.5 159.2 157.5 159.1 157.5 159 157.5 158.7 157.4 158.5 157 158.6 156.6 159.2 154.2 160.9 152.2 162.7 150.2 165.6 146.8 168.6 143.2 167 137.5 165.4 131.8 161.1 127.5 154.2 124.6 154 124.5 153.8 124.5 153.7 124.4 151.1 124.1 147 124 143.6 124.9 143.6 124.9 152.8 129.3 154.2 130.8 156.4 133.2 162.9 135.3 162.9 139 163 142.8 161.7 145.1 157.8 150.2 153.8 155.3 153.3 168 158.3 173.2 158.3 173.2 159.6 161.4 164 156.8 169.4 151.2 174.3 143.9 172.6 137.3"/><path d="M158.9 143.8C159 143.7 159.1 143.7 159.1 143.6 159.4 143.4 159.6 143.2 159.8 142.9L159.8 142.9 159.8 142.9C160.1 142.5 160.4 142 160.7 141.4 160.7 141.4 160.7 141.4 160.7 141.4 160.6 141.4 160.6 141.5 160.5 141.5 160.1 141.7 159.7 142 159.2 142.3 159.1 142.4 159 142.5 158.8 142.6 157.9 143 157.5 142.8 157.3 142.6 157.3 142.6 157.3 142.6 157.3 142.5 157.2 142.3 157.1 141.9 157.3 141.5 157.4 141 157.6 140.6 157.6 140.2 157.6 140.2 157.5 140.2 157.5 140.2 156.6 140.6 155.8 141 155.1 141.6 154.8 141.9 154.5 142.1 154.2 142.3 153.5 142.5 153.2 142.3 153.1 141.9 153 141.4 152.9 140.9 152.9 140.4 152.9 140 152.9 139.6 152.9 139.2 152.9 139.2 152.9 139.2 152.9 139.1 152.7 139.2 152.5 139.4 152.3 139.5 151.9 139.7 151.6 139.9 151.3 140.2 151.2 140.3 151.1 140.3 151 140.4 150.8 140.5 150.7 140.6 150.5 140.7 150.3 140.6 150.1 140.5 149.9 140.4 149.9 140.4 149.8 140.3 149.8 140.2 149.6 139.7 149.5 139.2 149.3 138.5 149.3 138.3 149.2 138 149.2 137.7L149.2 137.7C149.2 137.7 149.2 137.7 149.1 137.7 148.8 137.9 148.6 138 148.4 138.2 147.8 138.6 147.7 139 147.8 139.6 147.9 139.8 147.9 139.9 148 140 148 140.4 148.1 140.7 148.2 141 148.1 142.2 147.4 142 147.1 141.8L147.1 141.8C147.1 141.8 147.1 141.8 147.2 141.8 146.4 141.5 145.6 141.1 144.8 140.5 144.8 140.4 144.7 140.4 144.5 140.3 144.5 140.3 144.5 140.4 144.5 140.4 144.5 140.6 144.5 140.8 144.5 141 144.5 141.3 144.5 141.6 144.5 141.9 144.5 142 144.5 142.1 144.4 142.2 144.4 142.2 144.5 142.2 144.5 142.2 144.4 142.7 144.2 142.7 143.6 142.5 143.5 142.5 143.5 142.5 143.4 142.5 143.3 142.4 143.2 142.3 143.1 142.2 143.1 142.2 143.1 142.2 143 142.2 143 142.1 142.9 142.1 142.9 142 142.8 141.9 142.8 141.9 142.7 141.8 142 141.3 141.3 140.6 140.7 139.8 140.5 139.5 140.4 139.5 140.4 139.5 140.3 139.5 140.2 139.6 140.1 139.6 139.8 139.8 139.5 140 139.3 140.2 139.2 140.3 139.1 140.4 138.9 140.6 138.2 141.2 137.6 141.8 137.2 142.7 137.1 142.9 136.9 143 136.7 143 136.5 143.1 136.3 143 136.2 142.8 136.1 142.7 136 142.6 136 142.5 135.2 141.2 134.9 139.9 134.9 138.6 134.9 138.6 134.9 138.5 134.9 138.4 134.1 138.8 133.5 139.2 133 139.7 132.8 139.9 132.7 140 132.6 140.1 132.2 140.5 131.9 140.8 131.8 141.3 131.7 141.6 131.5 141.8 131.2 141.8 131 141.8 130.7 141.7 130.5 141.4 130.4 141.3 130.3 141.1 130.2 140.8 129.6 139.2 129.5 137.6 129.8 136 129.9 135.9 129.9 135.8 129.9 135.7 129.7 135.7 129.5 135.7 129.4 135.7 128.8 135.8 128.3 135.8 127.8 135.9 127.2 136.1 126.5 136.3 125.6 136.6L125.5 136.7C124.8 136.9 124.2 137.2 123.7 137.7 123.6 137.9 123.3 137.9 123.1 137.9 123 137.9 122.9 137.9 122.8 137.9 122.4 137.8 122.3 137.3 122.3 137.1 122.3 136.8 122.4 136.5 122.4 136.2 122.4 136.1 122.5 136 122.5 135.9L122.5 135.7C122.6 135.2 122.7 134.6 122.8 134.1 122.8 134 122.8 133.9 122.8 133.8 122.9 133.5 123 133.1 123.1 132.8 123.5 131.8 124 130.9 124.5 130 124.6 129.7 124.8 129.4 124.9 129.1 125 129 125 128.9 125.1 128.8 125 128.8 125 128.8 124.9 128.8 124.8 128.8 124.7 128.8 124.6 128.8 124.4 128.8 124.2 128.8 124 128.8 123.7 128.9 123.5 128.9 123.3 128.9 122.1 129.2 121 129.7 120 130.3 119.7 130.5 119.5 130.6 119.3 130.7 119.1 130.9 118.9 131 118.7 131.1L118.7 131.1C118.6 131.2 118.5 131.3 118.3 131.3 118.2 131.3 118.1 131.3 117.9 131.1 117.5 130.7 117.6 130.4 117.7 130.2 117.7 130.2 117.7 130.1 117.8 130.1 117.8 130.1 117.8 130.1 117.8 130 117.9 129.9 118 129.7 118 129.5 118.2 129.2 118.4 128.8 118.7 128.4 119 127.8 119.5 127.2 120 126.5 120.2 126.2 120.5 125.9 120.7 125.6 120.8 125.6 120.8 125.5 120.9 125.4 121.1 125.2 121.3 125 121.5 124.8 121.5 124.8 121.5 124.7 121.6 124.7 121.3 124.8 121 124.8 120.7 124.9 120 125 119.2 125.3 118.5 125.8 118 126.1 117.4 126.5 116.9 126.9L116.9 126.9C116.8 127 116.6 127.1 116.4 127.1 116.3 127.2 116.1 127.1 116 127.1 115.7 126.9 115.7 126.5 115.9 126.1L115.9 126C116 125.7 116.2 125.4 116.3 125.1 116.6 124.4 117 123.5 117.7 122.8 118.2 122.2 118.7 121.6 119.3 121 119.5 120.8 119.8 120.5 120.1 120.2 120 120.2 119.8 120.2 119.7 120.2 119.2 120.3 118.8 120.3 118.3 120.4 117.2 120.7 116.4 121.3 116 122.1 115.9 122.4 115.7 122.5 115.5 122.5 115.4 122.5 115.3 122.5 115.2 122.5 114.8 122.3 114.6 122 114.7 121.7 114.8 121.6 114.8 121.5 114.8 121.4 114.9 120.9 115.1 120.5 115.2 120 115.3 119.8 115.4 119.6 115.4 119.3 115.4 119.3 115.4 119.3 115.4 119.3 115.4 119.3 115.3 119.4 115.3 119.4 113.9 119.9 112.7 120.3 111.5 120.4 110.7 120.4 109.9 120.4 109.2 120.3 108.9 120.2 108.6 120.1 108.4 120.1 108.2 120 108.1 120 107.9 120 107.5 119.9 107.3 119.6 107.3 119.2 107.3 119.1 107.4 119 107.5 118.9 107.4 118.9 107.3 118.9 107.2 118.9 105.9 118.9 104.4 118.9 102.9 118.5 102.7 118.4 102.2 118.3 102.2 117.7 102.3 117.2 102.8 117.1 102.9 117.1 103.2 117 103.4 117 103.6 116.9 103.5 116.9 103.4 116.9 103.3 116.9 102.9 116.8 102.5 116.8 102.1 116.7 100.8 116.6 99.7 116 98.6 115.5 98.4 115.4 98.2 115.1 98.2 114.8 98.3 114.4 98.5 114.2 98.9 114.2 98.9 114.2 98.9 114.2 98.9 114.2 99 114.2 99.1 114.2 99.2 114.2 99.3 114.2 99.3 114.2 99.4 114.2 99.4 114.2 99.5 114.2 99.5 114.2 98.3 114 97.1 113.6 95.9 112.9 95.7 112.8 95.5 112.6 95.4 112.4 95.3 112.2 95.3 111.9 95.4 111.8 95.4 111.8 95.4 111.7 95.5 111.7 94.4 112.1 93.5 112.4 92.7 112.5 91.3 112.8 89.9 113 88.6 113.2 88.2 113.3 87.9 113.3 87.6 113.3 86.9 113.4 86.2 113.4 85.7 113.3 85.6 113.3 85.5 113.3 85.5 113.3 86 113.9 86.7 114.4 87.4 114.7 87.7 114.9 88.1 115.1 88.4 115.2 88.6 115.3 88.8 115.4 89 115.6 90.1 116.1 91.1 116.4 92.2 116.3 92.3 116.3 92.3 116.3 92.4 116.3 92.7 116.3 93 116.2 93.2 116.2 93.3 116.2 93.4 116.2 93.5 116.2 93.9 116.1 94.2 116.2 94.4 116.6 94.6 117 94.3 117.3 94.2 117.4 94 117.6 93.9 117.7 93.8 117.9 93.6 118.2 93.4 118.4 93.1 118.7 92.3 119.5 91.1 120.5 89.7 121.3 89.6 121.3 89.4 121.4 89.3 121.5 88.7 121.8 88.1 122.1 87.4 122.3 87.3 122.3 87.2 122.3 87.2 122.3 87.2 122.3 87.2 122.3 87.2 122.3 87.3 122.4 87.5 122.4 87.6 122.4 87.9 122.5 88.2 122.6 88.5 122.8 89.2 123.2 90.1 123.4 91.2 123.4 91.7 123.4 92.2 123.4 92.6 123.4 93.3 123.3 93.9 123.2 94.4 122.9 94.5 122.8 94.6 122.8 94.7 122.8 94.9 122.8 95.2 122.8 95.3 123 95.5 123.2 95.7 123.5 95.3 123.9 95.2 124.2 95 124.4 94.8 124.6 94.4 125.2 94 125.8 93.4 126.2 93.2 126.4 93 126.5 92.9 126.6 92.1 127.2 91.3 127.9 90.3 128.2L90.4 128.2C90.7 128.3 91 128.5 91.4 128.5 91.5 128.5 91.6 128.6 91.6 128.6 92.4 128.7 93.2 128.9 93.9 128.8 94.9 128.7 95.7 128.5 96.4 128.4 97.3 128.1 98.2 127.8 99.1 127.3 99.2 127.2 99.4 127.2 99.5 127.1 99.6 127 99.7 127 99.8 126.9 99.9 126.8 100 126.8 100.1 126.8 100.3 126.8 100.5 126.9 100.7 127.1 100.9 127.3 100.9 127.7 100.6 127.9 100.6 128 100.6 128 100.6 128 100.4 128.1 100.3 128.2 100.2 128.3 100.1 128.4 100 128.4 99.9 128.5 99.5 128.7 99.2 128.9 98.9 129.3 98.7 129.5 98.5 129.8 98.3 130 98 130.4 97.6 130.8 97.3 131.2 96.4 132.5 95.7 133.7 95.2 134.9 95.1 135.1 95 135.3 95 135.5 94.9 135.7 94.8 135.9 94.7 136.1 94.7 136.2 94.6 136.4 94.6 136.5 94.7 136.5 94.9 136.4 95 136.3 95.5 136 95.9 135.7 96.4 135.5 96.8 135.2 97.3 135 97.8 134.8 98.1 134.7 98.4 134.6 98.7 134.5 98.9 134.5 99 134.4 99.1 134.4 99.3 134.4 99.4 134.3 99.6 134.3 100 134.1 100.4 134 100.8 133.9 101.4 133.8 102 133.8 102.6 133.7 102.7 133.7 102.8 133.7 102.9 133.7 103 133.7 103.1 133.6 103.2 133.6 103.6 133.6 104 133.6 104.5 133.6 104.8 133.5 105.1 133.7 105.2 133.9 105.3 134 105.4 134.3 105.2 134.7 105.1 134.9 105.1 135.1 105 135.3 105 135.4 104.9 135.5 104.9 135.6 104.9 135.7 104.9 135.8 104.8 135.9 104.8 136.1 104.7 136.3 104.6 136.5 104.3 137.1 103.9 137.7 103.3 138.2 103 138.6 102.6 139 102.2 139.4 102 139.7 101.7 139.9 101.4 140.2 100.8 140.8 100.1 141.5 99.2 141.9 98.6 142.1 98.1 142.3 97.6 142.6 97.5 142.7 97.4 142.7 97.2 142.8 98 143 98.8 143 99.4 143 100.2 143 101 143 101.7 142.9 102.2 142.9 102.6 142.9 103.1 142.9 103.3 142.9 103.4 142.9 103.6 142.8 104.4 142.8 105.2 142.6 105.9 142.5 106.1 142.4 106.4 142.4 106.6 142.3 106.9 142.3 107 142.2 107.2 142 107.3 141.8 107.5 141.7 107.6 141.7 107.7 141.7 107.9 141.8 108 141.9 108.1 142 108.2 142.1 108.3 142.1 108.7 142.5 108.8 142.6 108.5 143.2 108.4 143.5 108.3 143.8 108.1 144.1 108 144.3 107.9 144.5 107.8 144.7 107.8 144.7 107.8 144.7 107.7 144.8 107.6 145 107.5 145.2 107.5 145.4 107.2 146.6 107 147.9 106.9 149.1 106.9 149.7 107.1 150.3 107.3 150.9 107.3 150.9 107.3 150.9 107.3 150.9 107.4 150.8 107.4 150.7 107.5 150.6L107.6 150.5C107.8 150.2 108.1 149.9 108.4 149.6 108.8 149.3 109.2 149 109.6 148.7 110.3 148.3 110.8 148 111.3 147.8 111.7 147.6 112.1 147.4 112.6 147.2 112.7 147.1 112.8 147.1 112.9 147.1 113 147 113 147 113.1 147 113.3 147 113.6 147.1 113.8 147.3 113.9 147.4 114 147.7 113.9 147.9 113.8 148.6 113.7 149.3 113.5 149.9 113.3 150.8 113.2 151.7 113.3 152.6 113.5 153.9 113.7 155.2 113.9 156.3 113.9 156.4 113.9 156.5 113.9 156.5 113.9 156.7 114 156.9 114 157.1 114.2 156.9 114.3 156.8 114.4 156.6 114.7 156.3 114.9 155.9 115.2 155.6 115.9 154.7 116.8 153.8 118.2 152.9 118.9 152.4 119.6 152 120.3 151.6 120.6 151.5 120.9 151.4 121.1 151.2 121.3 151.1 121.4 151.1 121.6 151.1 121.7 151.1 122.1 151.1 122.3 151.7 122.5 152.6 122.6 153.5 122.5 154.7 122.4 155.8 122.5 156.6 122.8 157.4 122.9 157.7 123 158 123.1 158.2 123.2 158.4 123.3 158.6 123.3 158.8 123.4 159.1 123.5 159.4 123.7 159.6 123.7 159.5 123.8 159.4 123.8 159.2 124 158.5 124.3 157.9 124.9 157.3 125.1 157 125.4 156.7 125.7 156.4 126 156.1 126.3 155.8 126.5 155.5 126.9 155.1 127.2 154.8 127.6 154.6 128.1 154.1 128.7 153.6 129.3 153.2 129.5 153 129.7 152.8 129.9 152.6 130 152.5 130.1 152.5 130.2 152.4L130.5 152.2 130.6 152.3C130.9 152.4 131.2 152.6 131.2 153.1 131.2 153.4 131.3 153.8 131.3 154.2 131.3 154.8 131.3 155.5 131.3 156.1 131.3 157 131.4 157.8 131.6 158.7 131.6 158.7 131.6 158.8 131.7 158.9 131.7 158.8 131.7 158.8 131.7 158.8 131.7 158.7 131.7 158.7 131.8 158.6 131.9 158.3 132 158.1 132.1 157.9 132.7 157 133.2 156.2 133.8 155.5 133.9 155.3 134 155.2 134.1 155 134.4 154.6 134.6 154.2 135.1 153.9 135.3 153.7 135.6 153.5 135.8 153.2 135.9 153.1 136 153.1 136.1 153 136.2 152.8 136.4 152.7 136.5 152.5 136.7 152.3 136.9 152.1 137.1 152 137.3 151.8 137.5 151.7 137.6 151.7 137.8 151.7 138 151.8 138.1 151.8 138.6 152.1 138.4 152.6 138.3 152.8 138.3 152.9 138.2 153.1 138.2 153.3 138.1 153.6 138 154 137.9 154.3 137.5 155.3 137.2 156.2 137.1 157 136.9 158.7 136.9 160.4 137.1 162.1 137.1 162.1 137.2 162 137.2 161.9 137.4 161.2 137.9 160.5 138.5 159.8 138.9 159.4 139.3 158.9 139.7 158.5L139.9 158.2C140 158.1 140.2 157.9 140.3 157.8 140.5 157.6 140.8 157.4 140.9 157.1 141.1 156.8 141.3 156.6 141.6 156.6 141.9 156.6 142.2 156.8 142.5 157.1 142.7 157.4 142.8 157.7 143 158 143.2 158.2 143.4 158.5 143.6 158.8 144.3 160.5 144.9 161.7 144.6 160.2 144.6 160.2 144.6 160.2 144.6 160.1 144.5 159.9 144.5 159.7 144.5 159.5 144.6 155.7 149.2 147.3 149.1 149.1 149 151.2 153.5 156.2 153.5 156.2 153.5 156.2 154 149.9 154.8 148.6 155.4 147.6 157.7 145.2 158.9 143.8"/></g></g></svg>
